<svg aria-hidden="true" style="position: absolute; width: 0; height: 0; overflow: hidden;" version="1.1" xmlns="http://www.w3.org/2000/svg" xmlns:xlink="http://www.w3.org/1999/xlink">
<defs>
<symbol id="switcher" viewBox="0 0 32 32">
<path fill="#f3f3f3" style="fill: var(--color1, #f3f3f3)" d="M16 0c8.837 0 16 7.163 16 16s-7.163 16-16 16c-8.837 0-16-7.163-16-16s7.163-16 16-16z"></path>
<path fill="#02897a" style="fill: var(--color2, #02897a)" d="M16 26c5.514 0 10-4.486 10-10s-4.486-10-10-10-10 4.486-10 10 4.486 10 10 10zM16 8c4.411 0 8 3.589 8 8s-3.589 8-8 8-8-3.589-8-8 3.589-8 8-8z"></path>
<path fill="#02897a" style="fill: var(--color2, #02897a)" d="M23 16c0-3.866-3.134-7-7-7v0 14c3.866 0 7-3.134 7-7v0z"></path>
</symbol>
<symbol id="logo" viewBox="0 0 178 36">
<path fill="#02bc6b" style="fill: var(--color3, #02bc6b)" d="M2.785 30.324c-1.532 0-2.785-1.241-2.785-2.757v-9.639h7.010v-0.011h4.213c1.086-0.027 2.005-0.964 2.005-2.068 0-1.131-0.947-2.068-2.089-2.068l-11.14 0.002v-2.759c0-1.516 1.253-2.757 2.785-2.757h8.356c2.116 0 3.926 0.745 5.402 2.233 1.504 1.461 2.256 3.253 2.256 5.349 0 2.068-0.724 3.86-2.2 5.321s-3.259 2.234-5.347 2.261h-5.682v4.135c0 1.516-1.253 2.757-2.785 2.757z"></path>
<path fill="#02897a" style="fill: var(--color2, #02897a)" d="M22.309 5.067c3.076 2.959 4.627 6.644 4.627 10.833 0 4.118-1.485 7.799-4.516 10.767l-4.3-4.006c1.884-1.845 2.809-4.068 2.809-6.761 0-2.715-0.953-4.933-2.882-6.788l4.261-4.044z"></path>
<path fill="#035b81" style="fill: var(--color4, #035b81)" d="M28.893 0c4.432 4.38 6.662 9.812 6.662 16.045 0 6.137-2.14 11.564-6.5 15.955l-4.151-4.015c3.248-3.27 4.838-7.236 4.838-11.94 0-4.75-1.644-8.713-4.962-11.991l4.112-4.054z"></path>
<path fill="#028e37" style="fill: var(--color5, #028e37)" d="M0 23.454h5.57v4.113c0 1.516-1.253 2.756-2.785 2.756s-2.785-1.239-2.785-2.756v-4.113z"></path>
<path fill="#173a56" style="fill: var(--color6, #173a56)" d="M65.698 13.084c0 1.084-0.249 2.080-0.747 2.987-0.498 0.889-1.262 1.609-2.293 2.16s-2.311 0.827-3.84 0.827h-2.827v6.72h-4.56v-18.72h7.387c1.493 0 2.756 0.258 3.787 0.773s1.804 1.227 2.32 2.133c0.516 0.907 0.773 1.947 0.773 3.12zM58.471 15.431c0.871 0 1.52-0.204 1.947-0.613s0.64-0.987 0.64-1.733c0-0.747-0.213-1.324-0.64-1.733s-1.076-0.613-1.947-0.613h-2.48v4.693h2.48zM72.631 13.378c0.533-0.818 1.2-1.458 2-1.92 0.8-0.48 1.689-0.72 2.667-0.72v4.827h-1.253c-1.138 0-1.991 0.249-2.56 0.747-0.569 0.48-0.853 1.333-0.853 2.56v6.907h-4.56v-14.88h4.56v2.48zM86.252 25.991c-1.458 0-2.773-0.311-3.947-0.933-1.156-0.622-2.071-1.511-2.747-2.667-0.658-1.156-0.987-2.507-0.987-4.053 0-1.529 0.338-2.871 1.013-4.027 0.676-1.173 1.6-2.071 2.773-2.693s2.489-0.933 3.947-0.933c1.458 0 2.773 0.311 3.947 0.933s2.098 1.52 2.773 2.693c0.676 1.156 1.013 2.498 1.013 4.027s-0.347 2.88-1.040 4.053c-0.676 1.156-1.609 2.044-2.8 2.667-1.173 0.622-2.489 0.933-3.947 0.933zM86.252 22.044c0.871 0 1.609-0.32 2.213-0.96 0.622-0.64 0.933-1.556 0.933-2.747s-0.302-2.107-0.907-2.747c-0.587-0.64-1.316-0.96-2.187-0.96-0.889 0-1.627 0.32-2.213 0.96-0.587 0.622-0.88 1.538-0.88 2.747 0 1.191 0.284 2.107 0.853 2.747 0.587 0.64 1.316 0.96 2.187 0.96zM95.55 18.311c0-1.529 0.284-2.871 0.853-4.027 0.587-1.156 1.378-2.044 2.373-2.667s2.107-0.933 3.333-0.933c0.978 0 1.867 0.204 2.667 0.613 0.818 0.409 1.458 0.96 1.92 1.653v-6.907h4.56v19.733h-4.56v-2.133c-0.427 0.711-1.040 1.28-1.84 1.707-0.782 0.427-1.698 0.64-2.747 0.64-1.227 0-2.338-0.311-3.333-0.933-0.996-0.64-1.787-1.538-2.373-2.693-0.569-1.173-0.853-2.524-0.853-4.053zM106.697 18.338c0-1.138-0.32-2.036-0.96-2.693-0.622-0.658-1.387-0.987-2.293-0.987s-1.68 0.329-2.32 0.987c-0.622 0.64-0.933 1.529-0.933 2.667s0.311 2.044 0.933 2.72c0.64 0.658 1.413 0.987 2.32 0.987s1.671-0.329 2.293-0.987c0.64-0.658 0.96-1.556 0.96-2.693zM129.25 10.898v14.88h-4.56v-2.027c-0.462 0.658-1.093 1.191-1.893 1.6-0.782 0.391-1.653 0.587-2.613 0.587-1.138 0-2.142-0.249-3.013-0.747-0.871-0.516-1.547-1.253-2.027-2.213s-0.72-2.089-0.72-3.387v-8.693h4.533v8.080c0 0.996 0.258 1.769 0.773 2.32s1.209 0.827 2.080 0.827c0.889 0 1.591-0.276 2.107-0.827s0.773-1.324 0.773-2.32v-8.080h4.56zM131.618 18.338c0-1.547 0.311-2.898 0.933-4.053 0.64-1.156 1.52-2.044 2.64-2.667 1.138-0.622 2.436-0.933 3.893-0.933 1.867 0 3.422 0.489 4.667 1.467 1.262 0.978 2.089 2.356 2.48 4.133h-4.853c-0.409-1.138-1.2-1.707-2.373-1.707-0.836 0-1.502 0.329-2 0.987-0.498 0.64-0.747 1.564-0.747 2.773s0.249 2.142 0.747 2.8c0.498 0.64 1.164 0.96 2 0.96 1.173 0 1.964-0.569 2.373-1.707h4.853c-0.391 1.742-1.218 3.111-2.48 4.107s-2.818 1.493-4.667 1.493c-1.458 0-2.756-0.311-3.893-0.933-1.12-0.622-2-1.511-2.64-2.667-0.622-1.156-0.933-2.507-0.933-4.053zM156.964 21.911v3.867h-2.32c-1.653 0-2.942-0.4-3.867-1.2-0.924-0.818-1.387-2.142-1.387-3.973v-5.92h-1.813v-3.787h1.813v-3.627h4.56v3.627h2.987v3.787h-2.987v5.973c0 0.444 0.107 0.764 0.32 0.96s0.569 0.293 1.067 0.293h1.627z"></path>
</symbol>
</defs>
</svg>
