<svg xmlns="http://www.w3.org/2000/svg" width="528" height="393" fill="none"><path fill="#F5F5F5" d="M77.333 352.488c103.09 53.877 270.255 53.877 373.345 0 103.09-53.878 103.102-141.225 0-195.103-103.102-53.877-270.255-53.877-373.358 0-103.102 53.878-103.09 141.225.013 195.103Z"/><path fill="#02897A" d="M50.666 172.053s-.613-13.834-8.19-21.88c-7.578-8.045-16.148-6.021-19.152-4.292-3.004 1.729-4.819 6.316.637 9.247 5.457 2.931 17.055 8.769 19.226 14.399l7.479 2.526Z"/><path stroke="#fff" stroke-linecap="round" stroke-miterlimit="10" stroke-width=".997" d="M26.646 147.255c4.672 1.116 18.27 7.8 20.5 21.622"/><path fill="#02897A" d="M47.147 168.877c-.65-3.471-4.132-5.703-9.895-4.428-5.763 1.276-4.904 1.08-12.163-.368-7.258-1.447-12.04 1.754-12.408 4.526-.417 3.017 5.48 4.023 9.931 5.74 4.451 1.717 7.578 4.035 6.744 8.008-.711 3.398 0 6.206 5.235 7.163 4.647.846 9.417-2.073 11.538 2.232a6.81 6.81 0 0 0 4.225 3.239 6.815 6.815 0 0 0 5.265-.786c9.76-11.185-8.472-25.326-8.472-25.326Z"/><path stroke="#fff" stroke-linecap="round" stroke-miterlimit="10" stroke-width=".997" d="M34.592 182.576a20.493 20.493 0 0 1 10.544-5.163"/><path stroke="#fff" stroke-linecap="round" stroke-miterlimit="10" stroke-width=".997" d="M17.855 166.816c7.504.147 29.819 7.935 36.023 19.844"/><path fill="#37474F" d="M62.006 244.941a28.26 28.26 0 0 1-8.165-3.52c-2.122-1.226-24.67-14.214-35.557-20.555a12.646 12.646 0 0 0-11.513-.172c-.74.4-1.36.994-1.79 1.717h-.405v1.398a4.303 4.303 0 0 0 2.563 3.496l35.703 20.628c1.877 1.067 5.15 3.054 5.947 4.673l-.552.319v1.411l16.761-9.677v-1.41l-2.992 1.692Z"/><path fill="#455A64" d="M6.771 219.247c-3.065 1.766-2.894 4.722.368 6.611l35.704 20.592c2.648 1.52 8.092 4.905 5.394 6.402l16.761-9.677c-2.66 1.557-8.325-1.558-11.157-3.201-2.121-1.227-24.67-14.215-35.557-20.568a12.7 12.7 0 0 0-5.737-1.461 12.7 12.7 0 0 0-5.776 1.302Z"/><path fill="#37474F" d="m66.15 241.041-16.258 9.394a5.562 5.562 0 0 0-2.947 4.906 5.558 5.558 0 0 0 2.947 4.906l21.8 12.596a6.525 6.525 0 0 0 5.91 0l16.258-9.395a5.543 5.543 0 0 0 0-9.812l-21.8-12.595a6.526 6.526 0 0 0-5.91 0Z"/><path fill="#BA68C8" d="m49.893 250.435 16.258-9.394a6.526 6.526 0 0 1 5.91 0l21.8 12.583c1.63.945 1.63 2.453 0 3.422l-16.222 9.382a6.513 6.513 0 0 1-5.91 0l-21.836-12.62c-1.68-.907-1.68-2.453 0-3.373Z"/><path fill="#37474F" d="M143.848 294.281h-.393a5.314 5.314 0 0 0-2.158-2.11l-43.955-25.387c-1.9-1.092-3.678-2.183-2.452-4.967v-1.398l-16.92 9.811v1.398a9.81 9.81 0 0 1 8.313 1.607c1.692 1.067 30.554 17.685 43.955 25.387a12.66 12.66 0 0 0 11.452.209 3.682 3.682 0 0 0 2.182-3.103l-.024-1.447Z"/><path fill="#455A64" d="M86.308 271.788c1.692 1.055 30.554 17.685 43.955 25.387a12.701 12.701 0 0 0 11.452.209c3.053-1.766 2.894-4.734-.368-6.611l-43.955-25.387c-1.9-1.092-3.678-2.196-2.452-4.967l-16.92 9.811a9.802 9.802 0 0 1 8.288 1.558Z"/><path fill="#37474F" d="M129.442 290.27a.727.727 0 0 0-.496.687.722.722 0 0 0 .496.686 2.614 2.614 0 0 0 2.379 0 .719.719 0 0 0 .495-.686.727.727 0 0 0-.495-.687 2.631 2.631 0 0 0-2.379 0ZM121.129 285.475a.733.733 0 0 0-.354 1.116.733.733 0 0 0 .354.269 2.614 2.614 0 0 0 2.378 0 .733.733 0 0 0 .354-1.116.733.733 0 0 0-.354-.269 2.627 2.627 0 0 0-2.378 0ZM112.816 280.692a.727.727 0 0 0-.496.686.727.727 0 0 0 .496.687 2.655 2.655 0 0 0 2.391 0 .727.727 0 0 0 .496-.687.722.722 0 0 0-.496-.686 2.644 2.644 0 0 0-2.391 0ZM104.515 275.884a.724.724 0 0 0 0 1.373 2.618 2.618 0 0 0 2.379 0 .72.72 0 0 0 .495-.686.724.724 0 0 0-.495-.687 2.63 2.63 0 0 0-2.379 0ZM96.202 271.125a.721.721 0 0 0-.496.687.721.721 0 0 0 .496.687 2.629 2.629 0 0 0 2.378 0 .72.72 0 0 0 .496-.687.721.721 0 0 0-.496-.687 2.628 2.628 0 0 0-2.378 0Z"/><path fill="#F0F0F0" d="M74.648 266.453a5.369 5.369 0 0 1-2.612-.613l-21.8-12.596c-.551-.319-.883-.724-.883-1.104 0-.38.332-.797.883-1.116l16.258-9.394a5.872 5.872 0 0 1 5.223 0l21.862 12.595c.564.319.883.724.883 1.104 0 .38-.32.797-.883 1.116L77.32 265.84a5.377 5.377 0 0 1-2.673.613Z"/><path fill="#fff" d="M69.056 241.703a4.701 4.701 0 0 1 2.268.515l21.8 12.596c.442.257.54.478.54.527 0 .049-.098.258-.54.515l-16.258 9.395a5.253 5.253 0 0 1-4.536 0l-21.751-12.596c-.442-.257-.54-.478-.54-.515 0-.037.098-.27.54-.527l16.258-9.395a4.7 4.7 0 0 1 2.268-.515h-.049Zm0-1.386a6.132 6.132 0 0 0-2.955.712l-16.258 9.394c-1.63.932-1.63 2.453 0 3.41l21.8 12.583a6.5 6.5 0 0 0 5.91 0l16.258-9.382c1.63-.945 1.63-2.453 0-3.422L72.06 241.041a6.13 6.13 0 0 0-3.004-.724Z"/><path fill="#37474F" d="m53.705 241.826 16.258-9.382a6.513 6.513 0 0 1 5.91 0l21.788 12.583c1.63.944 1.63 2.453 0 3.409l-16.246 9.395a6.526 6.526 0 0 1-5.91 0l-21.8-12.608c-1.63-.92-1.63-2.453 0-3.397Z"/><path fill="#fff" d="M68.346 250.966a.285.285 0 0 1-.166.038.657.657 0 0 1-.212-.085l-.084-.048c-.081-.047-.128-.086-.141-.118-.013-.037.006-.071.057-.101l.808-.468-3.295-1.894-.737.583c-.047.027-.126.024-.237-.011a1.444 1.444 0 0 1-.296-.125c-.077-.045-.081-.096-.013-.156l1.044-.932a.509.509 0 0 1 .192-.06c.073-.012.129-.007.167.015l3.829 2.201.692-.402c.051-.03.107-.04.167-.03a.53.53 0 0 1 .211.078l.084.048c.081.046.128.088.141.125.013.032-.006.063-.057.093l-2.154 1.249Zm2.788-1.617c-.038.022-.113.019-.225-.011a1.32 1.32 0 0 1-.282-.118c-.051-.029-.08-.053-.084-.07l-.639-2.07a1.486 1.486 0 0 0-.18-.422.922.922 0 0 0-.29-.248 1.113 1.113 0 0 0-.616-.147 1.33 1.33 0 0 0-.628.187.948.948 0 0 0-.308.252c-.05.08-.1.177-.147.293-.012.067-.032.108-.057.123-.052.03-.152.036-.302.019a.897.897 0 0 1-.314-.077c-.09-.052-.114-.135-.071-.248a.975.975 0 0 1 .256-.371c.132-.132.281-.246.448-.342a2.628 2.628 0 0 1 1.225-.362 2.05 2.05 0 0 1 1.149.261c.15.086.267.178.353.277.09.096.165.221.225.374s.123.366.188.64l.458 1.345 1.544-.897a.248.248 0 0 1 .16-.033c.06.005.131.03.213.077l.083.048c.082.047.129.089.142.126.013.032-.007.063-.058.093l-2.243 1.301Zm.596-3.329c-.188.109-.335.133-.442.072l-.469-.27c-.107-.061-.067-.147.121-.256l.141-.082c.188-.109.336-.132.443-.071l.469.27c.107.061.066.147-.122.256l-.14.081Zm2.596 1.492c-.188.109-.336.133-.443.072l-.469-.27c-.107-.062-.067-.147.121-.256l.141-.082c.188-.109.336-.133.443-.071l.469.27c.107.061.067.146-.121.255l-.141.082Zm2.294-1.294c-.393.228-.894.298-1.501.211-.603-.091-1.288-.356-2.055-.797-.766-.44-1.229-.835-1.388-1.183-.155-.35-.035-.639.358-.867.397-.231.9-.302 1.507-.215.608.088 1.295.352 2.061.793.767.441 1.227.836 1.382 1.187.155.35.033.641-.364.871Zm-.54-.317c.184-.107.194-.266.032-.478-.16-.215-.555-.505-1.19-.869-.633-.364-1.136-.592-1.508-.682-.368-.094-.644-.087-.828.02-.184.106-.194.266-.031.478.159.21.557.498 1.195.865.638.366 1.141.596 1.51.689.363.091.637.083.82-.023Zm3.481-1.389c-.393.228-.893.298-1.5.21-.604-.09-1.289-.356-2.055-.796-.767-.441-1.23-.835-1.388-1.183-.155-.351-.036-.64.357-.868.397-.23.9-.302 1.507-.214.608.088 1.295.352 2.062.792.766.441 1.227.837 1.381 1.187.155.351.034.641-.364.872Zm-.54-.318c.184-.107.195-.266.032-.478-.159-.215-.555-.504-1.189-.868-.633-.365-1.137-.592-1.509-.683-.368-.093-.644-.086-.828.02-.183.107-.194.266-.03.478.158.21.556.498 1.195.865.638.367 1.14.597 1.509.69.363.091.637.083.82-.024Z"/><path fill="#455A64" d="m204.663 237.864-38.414 22.187a5.54 5.54 0 0 0-2.961 4.905 5.547 5.547 0 0 0 2.961 4.906l71.653 41.393a6.603 6.603 0 0 0 5.91 0l38.413-22.187a5.542 5.542 0 0 0 0-9.811l-71.652-41.393a6.528 6.528 0 0 0-5.91 0Z"/><path fill="#455A64" d="m204.663 237.864-38.414 22.187a5.54 5.54 0 0 0-2.961 4.905 5.547 5.547 0 0 0 2.961 4.906l71.653 41.393a6.603 6.603 0 0 0 5.91 0l38.413-22.187a5.542 5.542 0 0 0 0-9.811l-71.652-41.393a6.528 6.528 0 0 0-5.91 0Z"/><path fill="#455A64" d="m204.663 237.864-38.414 22.187a5.54 5.54 0 0 0-2.961 4.905 5.547 5.547 0 0 0 2.961 4.906l71.653 41.393a6.603 6.603 0 0 0 5.91 0l38.413-22.187a5.542 5.542 0 0 0 0-9.811l-71.652-41.393a6.528 6.528 0 0 0-5.91 0Z"/><path fill="#000" d="m204.663 237.864-38.414 22.187a5.54 5.54 0 0 0-2.961 4.905 5.547 5.547 0 0 0 2.961 4.906l71.653 41.393a6.603 6.603 0 0 0 5.91 0l38.413-22.187a5.542 5.542 0 0 0 0-9.811l-71.652-41.393a6.528 6.528 0 0 0-5.91 0Z" opacity=".1"/><path fill="#455A64" d="m240.857 255.341-30.284-17.477a6.528 6.528 0 0 0-5.91 0l-38.414 22.187a5.54 5.54 0 0 0-2.961 4.905 5.547 5.547 0 0 0 2.961 4.906l71.653 41.393a6.138 6.138 0 0 0 2.955.699v-56.613Z"/><path fill="#455A64" d="m237.915 304.828-71.666-41.392c-1.63-.932-1.63-2.453 0-3.41l38.414-22.162a6.525 6.525 0 0 1 5.91 0l71.652 41.393c1.631.932 1.631 2.453 0 3.409l-38.413 22.162a6.5 6.5 0 0 1-5.897 0Z"/><path fill="#455A64" d="m237.915 304.828-71.666-41.392c-1.63-.932-1.63-2.453 0-3.41l38.414-22.162a6.525 6.525 0 0 1 5.91 0l71.652 41.393c1.631.932 1.631 2.453 0 3.409l-38.413 22.162a6.5 6.5 0 0 1-5.897 0Z"/><path fill="#455A64" d="m237.915 304.828-71.666-41.392c-1.63-.932-1.63-2.453 0-3.41l38.414-22.162a6.525 6.525 0 0 1 5.91 0l71.652 41.393c1.631.932 1.631 2.453 0 3.409l-38.413 22.162a6.5 6.5 0 0 1-5.897 0Z"/><path fill="#fff" d="m237.915 304.828-71.666-41.392c-1.63-.932-1.63-2.453 0-3.41l38.414-22.162a6.525 6.525 0 0 1 5.91 0l71.652 41.393c1.631.932 1.631 2.453 0 3.409l-38.413 22.162a6.5 6.5 0 0 1-5.897 0Z" opacity=".2"/><path fill="#fff" d="m175.556 264.257 36.427-21.033a2.575 2.575 0 0 1 2.354 0l58.583 33.887a.72.72 0 0 1 .478.68.721.721 0 0 1-.478.681l-36.415 21.033a2.594 2.594 0 0 1-2.367 0l-58.582-33.825a.724.724 0 0 1 0-1.423Z"/><path fill="#455A64" d="M260.646 292.33a4.158 4.158 0 0 1-3.8 0c-1.055-.601-1.055-1.582 0-2.195a4.233 4.233 0 0 1 3.8 0c1.055.613 1.055 1.594 0 2.195Z"/><path fill="#000" d="M260.646 292.33a4.158 4.158 0 0 1-3.8 0c-1.055-.601-1.055-1.582 0-2.195a4.233 4.233 0 0 1 3.8 0c1.055.613 1.055 1.594 0 2.195Z" opacity=".1"/><path fill="#455A64" d="M188.454 250.644a1.023 1.023 0 0 1-.956 0 .295.295 0 0 1 0-.552 1.02 1.02 0 0 1 .956 0 .297.297 0 0 1 .192.276.296.296 0 0 1-.192.276ZM186.921 255.034a2.155 2.155 0 0 1-1.937 0 .585.585 0 0 1-.401-.558.587.587 0 0 1 .401-.558 2.158 2.158 0 0 1 1.937 0 .586.586 0 0 1 .291.902.588.588 0 0 1-.291.214ZM188.283 253.085c-.356-.209-.344-.552 0-.773l6.351-3.679a1.518 1.518 0 0 1 1.324 0c.356.208.331.552 0 .772l-6.339 3.68a1.49 1.49 0 0 1-1.336 0Z"/><path fill="#455A64" d="M188.453 250.129a.293.293 0 0 1 0 .552 1.02 1.02 0 0 1-.956 0M186.921 255.034a2.155 2.155 0 0 1-1.937 0 .585.585 0 0 1-.401-.558.587.587 0 0 1 .401-.558 2.158 2.158 0 0 1 1.937 0 .586.586 0 0 1 .291.902.588.588 0 0 1-.291.214ZM188.283 253.085c-.356-.209-.344-.552 0-.773l6.351-3.679a1.518 1.518 0 0 1 1.324 0c.356.208.331.552 0 .772l-6.339 3.68a1.49 1.49 0 0 1-1.336 0Z"/><path fill="#455A64" d="M188.453 250.129a.293.293 0 0 1 0 .552 1.02 1.02 0 0 1-.956 0M186.921 255.034a2.155 2.155 0 0 1-1.937 0 .585.585 0 0 1-.401-.558.587.587 0 0 1 .401-.558 2.158 2.158 0 0 1 1.937 0 .586.586 0 0 1 .291.902.588.588 0 0 1-.291.214ZM188.283 253.085c-.356-.209-.344-.552 0-.773l6.351-3.679a1.518 1.518 0 0 1 1.324 0c.356.208.331.552 0 .772l-6.339 3.68a1.49 1.49 0 0 1-1.336 0Z"/><path fill="#000" d="M188.454 250.644a1.023 1.023 0 0 1-.956 0 .295.295 0 0 1 0-.552 1.02 1.02 0 0 1 .956 0 .297.297 0 0 1 .192.276.296.296 0 0 1-.192.276Z" opacity=".1"/><path fill="#000" d="M188.453 250.129a.293.293 0 0 1 0 .552 1.02 1.02 0 0 1-.956 0M186.921 255.034a2.155 2.155 0 0 1-1.937 0 .585.585 0 0 1-.401-.558.587.587 0 0 1 .401-.558 2.158 2.158 0 0 1 1.937 0 .586.586 0 0 1 .291.902.588.588 0 0 1-.291.214ZM188.283 253.085c-.356-.209-.344-.552 0-.773l6.351-3.679a1.518 1.518 0 0 1 1.324 0c.356.208.331.552 0 .772l-6.339 3.68a1.49 1.49 0 0 1-1.336 0Z" opacity=".1"/><path fill="#455A64" d="m459.899 228.237 60.581 34.978a5.546 5.546 0 0 1 2.163 7.771 5.54 5.54 0 0 1-2.163 2.04l-93.833 54.197a6.528 6.528 0 0 1-5.91 0l-60.569-34.991a5.54 5.54 0 0 1-2.961-4.905 5.547 5.547 0 0 1 2.961-4.906l93.882-54.184a6.5 6.5 0 0 1 5.849 0Z"/><path fill="#455A64" d="m459.899 228.237 60.581 34.978a5.546 5.546 0 0 1 2.163 7.771 5.54 5.54 0 0 1-2.163 2.04l-93.833 54.197a6.528 6.528 0 0 1-5.91 0l-60.569-34.991a5.54 5.54 0 0 1-2.961-4.905 5.547 5.547 0 0 1 2.961-4.906l93.882-54.184a6.5 6.5 0 0 1 5.849 0Z"/><path fill="#000" d="m459.899 228.237 60.581 34.978a5.546 5.546 0 0 1 2.163 7.771 5.54 5.54 0 0 1-2.163 2.04l-93.833 54.197a6.528 6.528 0 0 1-5.91 0l-60.569-34.991a5.54 5.54 0 0 1-2.961-4.905 5.547 5.547 0 0 1 2.961-4.906l93.882-54.184a6.5 6.5 0 0 1 5.849 0Z" opacity=".2"/><path fill="#455A64" d="m401.537 258.53 52.514-30.293a6.496 6.496 0 0 1 5.897 0l60.581 34.978a5.542 5.542 0 0 1 0 9.811l-93.832 54.197a6.127 6.127 0 0 1-2.955.699v-11.798l-22.205-57.594Z"/><path fill="#455A64" d="m426.647 320.821 93.833-54.197c1.631-.932 1.631-2.452 0-3.409l-60.581-34.978a6.503 6.503 0 0 0-5.898 0l-93.833 54.196c-1.63.932-1.63 2.453 0 3.41l60.569 34.978a6.528 6.528 0 0 0 5.91 0Z"/><path fill="#000" d="m426.647 320.821 93.833-54.197c1.631-.932 1.631-2.452 0-3.409l-60.581-34.978a6.503 6.503 0 0 0-5.898 0l-93.833 54.196c-1.63.932-1.63 2.453 0 3.41l60.569 34.978a6.528 6.528 0 0 0 5.91 0Z" opacity=".1"/><path fill="#FAFAFA" d="m511.174 267.446-58.583-33.837a2.67 2.67 0 0 0-2.366 0l-80.751 46.604a.722.722 0 0 0-.478.681.721.721 0 0 0 .478.681l58.583 33.837a2.67 2.67 0 0 0 2.366 0l80.751-46.604a.722.722 0 0 0 .478-.681.721.721 0 0 0-.478-.681Z"/><path fill="#455A64" d="M393.015 301.884a4.158 4.158 0 0 0 3.801 0 1.153 1.153 0 0 0 0-2.195 4.16 4.16 0 0 0-3.801 0 1.153 1.153 0 0 0 0 2.195Z"/><path fill="#000" d="M393.015 301.884a4.158 4.158 0 0 0 3.801 0 1.153 1.153 0 0 0 0-2.195 4.16 4.16 0 0 0-3.801 0 1.153 1.153 0 0 0 0 2.195Z" opacity=".3"/><path fill="#455A64" d="M486.885 247.676a1.05 1.05 0 0 0 .969 0 .297.297 0 0 0 .192-.276.296.296 0 0 0-.192-.276 1.05 1.05 0 0 0-.969 0 .297.297 0 0 0-.192.276.296.296 0 0 0 .192.276ZM488.381 252.091a2.129 2.129 0 0 0 1.925 0 .586.586 0 0 0 .401-.558.59.59 0 0 0-.401-.558 2.136 2.136 0 0 0-1.925 0 .588.588 0 0 0 0 1.116ZM487.069 250.129c.356-.209.331-.552 0-.773l-6.351-3.679a1.441 1.441 0 0 0-1.324 0c-.356.196-.343.539 0 .76l6.351 3.679a1.437 1.437 0 0 0 1.324.013Z"/><g fill="#000" opacity=".3"><path d="M486.885 247.675a1.05 1.05 0 0 0 .969 0 .297.297 0 0 0 .192-.276.296.296 0 0 0-.192-.276 1.05 1.05 0 0 0-.969 0 .297.297 0 0 0-.192.276.296.296 0 0 0 .192.276ZM488.381 252.09a2.13 2.13 0 0 0 1.925 0 .59.59 0 0 0 .29-.901.59.59 0 0 0-.29-.214 2.137 2.137 0 0 0-1.925 0 .588.588 0 0 0 0 1.115ZM487.069 250.129c.356-.209.331-.552 0-.773l-6.351-3.679a1.441 1.441 0 0 0-1.324 0c-.356.196-.343.539 0 .76l6.351 3.679a1.437 1.437 0 0 0 1.324.013Z" opacity=".3"/></g><path fill="#455A64" d="M154.797 132.255 55.484 189.64a5.545 5.545 0 0 0 0 9.812l71.665 41.38a6.525 6.525 0 0 0 5.91 0l99.313-57.385a5.554 5.554 0 0 0 2.154-7.768 5.561 5.561 0 0 0-2.154-2.044l-71.665-41.38a6.528 6.528 0 0 0-5.91 0Z"/><path fill="#000" d="M154.797 132.255 55.484 189.64a5.545 5.545 0 0 0 0 9.812l71.665 41.38a6.525 6.525 0 0 0 5.91 0l99.313-57.385a5.554 5.554 0 0 0 2.154-7.768 5.561 5.561 0 0 0-2.154-2.044l-71.665-41.38a6.528 6.528 0 0 0-5.91 0Z" opacity=".2"/><path fill="#455A64" d="m130.055 146.543-74.62 43.097a5.546 5.546 0 0 0 0 9.812l71.665 41.38c.91.482 1.926.726 2.955.711v-95Z"/><path fill="#000" d="m130.055 146.543-74.62 43.097a5.546 5.546 0 0 0 0 9.812l71.665 41.38c.91.482 1.926.726 2.955.711v-95Z" opacity=".1"/><path fill="#455A64" d="m55.435 189.64 99.313-57.385a6.528 6.528 0 0 1 5.91 0l71.665 41.38c1.631.945 1.631 2.453 0 3.41L133.01 234.43a6.528 6.528 0 0 1-5.91 0l-71.665-41.38c-1.63-.945-1.63-2.478 0-3.41Z"/><path fill="#455A64" d="M102.345 130.55 42.266 95.879a5.668 5.668 0 0 0-.71 2.882l5.137 85.974a6.831 6.831 0 0 0 2.979 5.004 6.34 6.34 0 0 0 5.714-.099l48.001-27.68-1.042-31.41Z"/><path fill="#000" d="M102.345 130.55 42.266 95.879a5.668 5.668 0 0 0-.71 2.882l5.137 85.974a6.831 6.831 0 0 0 2.979 5.004 6.34 6.34 0 0 0 5.714-.099l48.001-27.68-1.042-31.41Z" opacity=".2"/><path fill="#455A64" d="m66.519 189.64 88.279-50.983a6.523 6.523 0 0 1 5.909 0l2.453 1.386c1.63.944 1.63 2.453 0 3.41l-88.28 50.983a6.526 6.526 0 0 1-5.909 0l-2.452-1.386c-1.63-.944-1.63-2.478 0-3.41Z"/><path fill="#000" d="m66.519 189.64 88.279-50.983a6.523 6.523 0 0 1 5.909 0l2.453 1.386c1.63.944 1.63 2.453 0 3.41l-88.28 50.983a6.526 6.526 0 0 1-5.909 0l-2.452-1.386c-1.63-.944-1.63-2.478 0-3.41Z" opacity=".1"/><path fill="#455A64" d="m77.64 196.03 88.278-50.983a6.59 6.59 0 0 1 5.91 0l27.329 15.797c1.631.932 1.631 2.452 0 3.409l-88.278 50.983a6.515 6.515 0 0 1-5.91 0l-27.33-15.796c-1.667-.932-1.667-2.465 0-3.41Z"/><path fill="#000" d="m77.64 196.03 88.278-50.983a6.59 6.59 0 0 1 5.91 0l27.329 15.797c1.631.932 1.631 2.452 0 3.409l-88.278 50.983a6.515 6.515 0 0 1-5.91 0l-27.33-15.796c-1.667-.932-1.667-2.465 0-3.41Z" opacity=".1"/><path fill="#455A64" d="m149.623 199.231 27.33-15.784a6.523 6.523 0 0 1 5.909 0l10.704 6.193c1.631.933 1.631 2.453 0 3.41l-27.329 15.784a6.515 6.515 0 0 1-5.91 0l-10.716-6.193c-1.619-.932-1.619-2.465.012-3.41Z"/><path fill="#000" d="m149.623 199.231 27.33-15.784a6.523 6.523 0 0 1 5.909 0l10.704 6.193c1.631.933 1.631 2.453 0 3.41l-27.329 15.784a6.515 6.515 0 0 1-5.91 0l-10.716-6.193c-1.619-.932-1.619-2.465.012-3.41Z" opacity=".1"/><path fill="#393939" d="m158.083 168.435 2.746-1.594c.123-.074.111-.184 0-.258l-3.494-1.987a.522.522 0 0 0-.466 0l-2.746 1.582c-.123.074-.099.197 0 .27l3.42 1.975a.542.542 0 0 0 .54.012Zm-6.045-6.61-2.759 1.582c-.11.073-.098.184 0 .27l3.421 1.974a.486.486 0 0 0 .454 0l2.759-1.582c.11-.074.098-.184 0-.27l-3.421-1.974a.486.486 0 0 0-.454 0Zm-8.889 5.126-4.659 2.698c-.123 0-.111.184 0 .258l3.421 1.974a.522.522 0 0 0 .466 0l4.659-2.698c.11-.061.098-.184 0-.257l-3.421-1.975a.5.5 0 0 0-.466-.061v.061Zm4.904-2.808-2.758 1.594c-.111.061-.098.184 0 .257l3.457 1.963a.512.512 0 0 0 .454 0l2.759-1.595c.11-.061.098-.184 0-.257l-3.421-1.975a.503.503 0 0 0-.527-.049l.036.062Zm-10.802 6.23-2.746 1.594c-.123.062-.11.184 0 .258l3.421 1.987a.522.522 0 0 0 .466 0l2.746-1.582c.123-.074.098-.197 0-.27l-3.421-2.024a.527.527 0 0 0-.248-.074.517.517 0 0 0-.254.05l.036.061Zm-4.021 2.33-2.747 1.582c-.122.074-.11.196 0 .27l3.421 1.975a.567.567 0 0 0 .466 0l2.747-1.595c.122-.073.098-.184 0-.27l-3.421-1.974a.486.486 0 0 0-.503-.049l.037.061Zm13.487 8.021 2.759-1.582c.11-.074.098-.184 0-.27l-3.421-1.974a.486.486 0 0 0-.454 0l-2.759 1.582c-.11.073-.098.184 0 .27l3.421 1.974a.492.492 0 0 0 .405-.061l.049.061Zm-4.022 2.33 2.759-1.594c.11-.061.098-.184 0-.258l-3.421-1.974a.46.46 0 0 0-.453 0l-2.759 1.594c-.11.062-.098.184 0 .258l3.421 1.974a.48.48 0 0 0 .196.007.488.488 0 0 0 .184-.068l.073.061Zm-4.021 2.318 2.758-1.582c.111-.073.099-.196 0-.27l-3.506-2.072a.54.54 0 0 0-.454 0l-2.759 1.594c-.11.061-.098.184 0 .258l3.421 1.986a.5.5 0 0 0 .242.079.5.5 0 0 0 .249-.054l.049.061Zm-4.022 2.331 2.759-1.595c.11-.073.098-.184 0-.27l-3.421-1.974a.486.486 0 0 0-.454 0l-2.758 1.582c-.111.073-.098.184 0 .27l3.421 1.974c.136.037.281.02.404-.049l.049.062Zm19.458-16.889 2.747-1.594c.122 0 .11-.184 0-.258l-3.421-1.974a.524.524 0 0 0-.466 0l-2.746 1.594c-.123.062-.099.184 0 .258l3.42 1.974a.51.51 0 0 0 .216.016.51.51 0 0 0 .201-.077l.049.061Zm-3.372 7.592 6.131-3.544c.123-.074.098-.184 0-.27l-8.313-4.796a.497.497 0 0 0-.454 0l-3.175 1.828c-.111.073-.098.184 0 .27l4.401 2.538c.135.074.148.197 0 .258l-2.538 1.472c-.11.061-.098.184 0 .257l3.421 1.975a.505.505 0 0 0 .478-.049l.049.061Zm-21.603-3.446-2.747 1.594c-.122.061-.11.184 0 .258l3.421 1.974a.525.525 0 0 0 .466 0l2.746-1.594c.123-.061.099-.184 0-.258l-3.42-1.974a.498.498 0 0 0-.466 0Zm-4.022 2.33-2.746 1.582c-.123.074-.111.184 0 .27l3.421 1.975a.52.52 0 0 0 .465 0l2.747-1.583c.122-.073.098-.184 0-.269l-3.421-1.975a.483.483 0 0 0-.429 0h-.037Zm-19.151 26.589a.482.482 0 0 0 .453 0l2.747-1.582c.122-.073.11-.184 0-.27l-3.421-1.974a.51.51 0 0 0-.466 0l-2.746 1.582c-.123.073-.099.184 0 .27l3.433 1.974Zm-13.022-8.008-2.758 1.582c-.11.073-.098.184 0 .27l3.42 1.974a.485.485 0 0 0 .454 0l2.759-1.582c.11-.074.098-.184 0-.27l-3.42-1.974a.485.485 0 0 0-.418 0h-.037Zm7.075 5.788a.497.497 0 0 0 .454 0l2.746-1.594c.123 0 .11-.184 0-.257l-3.433-1.975a.497.497 0 0 0-.454 0l-2.746 1.594c-.123.062-.11.184 0 .258l3.433 1.974Zm13.401 3.839 2.759-1.594c.11-.062.098-.184 0-.258l-3.421-1.974a.496.496 0 0 0-.454 0l-2.758 1.594c-.111.061-.098.184 0 .258l3.421 1.974a.5.5 0 0 0 .49 0h-.037Zm-4.475 2.306a.498.498 0 0 0 .454 0l2.758-1.582c.111-.074.098-.196 0-.27l-3.42-1.975a.544.544 0 0 0-.454 0l-2.759 1.595c-.11.073-.098.184 0 .257l3.421 1.975ZM96.962 193.54l-2.759 1.595c-.11.061-.098.184 0 .257l3.421 1.987a.485.485 0 0 0 .454 0l2.759-1.594c.11 0 .098-.184 0-.258l-3.421-1.974a.53.53 0 0 0-.417-.013h-.037Zm20.108-11.614-2.759 1.594c-.11.062-.098.184 0 .258l3.421 1.987a.497.497 0 0 0 .454 0l2.758-1.582c.111-.074.099-.197 0-.27l-3.42-1.975a.554.554 0 0 0-.417-.012h-.037Zm-16.05 9.333-2.758 1.595c-.11 0-.098.184 0 .257l3.421 1.975a.508.508 0 0 0 .453 0l2.759-1.595c.11-.061.098-.184 0-.257l-3.421-1.975a.497.497 0 0 0-.454 0Zm20.108-11.614-2.746 1.594c-.123 0-.11.184 0 .258l3.421 1.974a.496.496 0 0 0 .453 0l2.759-1.594c.11-.061.098-.184 0-.258l-3.421-1.974a.465.465 0 0 0-.466-.037v.037Zm-8.043 4.648-2.759 1.582c-.11.074-.098.184 0 .27l3.421 1.975c.071.032.149.05.227.05a.556.556 0 0 0 .227-.05l2.759-1.595c.11-.073.098-.184 0-.27l-3.421-1.974a.492.492 0 0 0-.454-.025v.037Zm-4.021 2.318-2.759 1.594c-.11.062-.098.184 0 .258l3.421 1.974a.497.497 0 0 0 .453 0l2.759-1.594c.11-.061.098-.184 0-.257l-3.421-1.987a.504.504 0 0 0-.453-.025v.037Zm-4.022 2.33-2.759 1.582c-.11.074-.098.184 0 .27l3.421 1.975a.497.497 0 0 0 .454 0l2.758-1.582c.111-.074.099-.184 0-.27l-3.42-1.975a.492.492 0 0 0-.454-.037v.037Zm21.518 3.373 2.746-1.582c.123-.074.111-.184 0-.27l-3.42-1.975a.497.497 0 0 0-.454 0l-2.783 1.546c-.111.073-.098.184 0 .27l3.421 1.974a.49.49 0 0 0 .49 0v.037Zm34.331-35.653-2.759 1.595c-.111.061-.098.184 0 .257l3.421 1.975a.508.508 0 0 0 .453 0l2.759-1.595c.11 0 .098-.184 0-.257l-3.421-1.975a.475.475 0 0 0-.417-.037l-.036.037Zm-4.905 2.809-2.759 1.594c-.11.062-.098.184 0 .258l3.421 1.974a.5.5 0 0 0 .454 0l2.759-1.594c.11 0 .098-.184 0-.258l-3.421-1.974a.498.498 0 0 0-.331-.037l-.123.037Zm8.889-5.127-2.636 1.546c-.11.073-.098.184 0 .269l3.421 1.975a.486.486 0 0 0 .454 0l2.758-1.582c.111-.074.098-.184 0-.27l-3.42-1.974a.486.486 0 0 0-.503 0l-.074.036Zm-20.206 21.831 2.759-1.594c.11-.074.098-.184 0-.27l-3.421-1.975a.497.497 0 0 0-.453 0l-2.759 1.582c-.11.074-.098.197 0 .27l3.421 1.975a.537.537 0 0 0 .527-.025l-.074.037Zm24.755-24.161a.496.496 0 0 0-.453 0l-2.759 1.594c-.111 0-.098.184 0 .258l3.421 1.975a.508.508 0 0 0 .453 0l2.759-1.595c.11-.061.098-.184 0-.257l-3.421-1.975Zm-38.842 37.958 2.758-1.594c.111 0 .098-.184 0-.257l-3.421-1.975a.495.495 0 0 0-.453 0l-2.783 1.558c-.111.061-.099.183 0 .257l3.42 1.975a.51.51 0 0 0 .479.024v.012Zm49.325-28.49 2.747-1.582c.122-.074.11-.184 0-.27l-3.421-1.974a.51.51 0 0 0-.466 0l-2.746 1.582c-.123.073-.099.184 0 .27l3.384 1.95a.487.487 0 0 0 .502.012v.012Zm-8.913-.49 2.758-1.595c.111-.073.098-.184 0-.27l-3.421-1.974a.482.482 0 0 0-.453 0l-2.734 1.557c-.111.074-.098.184 0 .27l3.42 1.975a.541.541 0 0 0 .43.024v.013Zm3.322-6.133a.537.537 0 0 0-.453 0l-2.759 1.595c-.11.061-.098.184 0 .257l3.421 1.987a.486.486 0 0 0 .453 0l2.759-1.582c.11-.074.098-.196 0-.27l-3.421-1.987Zm.846-.49 8.313 4.795a.5.5 0 0 0 .454 0l2.746-1.594c.123-.061.111-.184 0-.258l-8.313-4.795a.46.46 0 0 0-.453 0l-2.759 1.594c-.135.025-.123.147.012.221v.037Zm-9.343 5.114-2.758 1.594c-.111 0-.098.184 0 .258l3.421 1.975a.508.508 0 0 0 .453 0l2.759-1.595c.11-.061.098-.184 0-.257l-3.421-1.975a.512.512 0 0 0-.454-.037v.037Zm-30.272 17.489-2.734 1.545c-.11.074-.098.184 0 .27l3.421 1.975a.497.497 0 0 0 .453 0l2.759-1.582c.111-.074.098-.184 0-.27l-3.421-1.975a.498.498 0 0 0-.478 0v.037Zm39.885-13.16a.497.497 0 0 0 .454 0l2.746-1.594c.123-.061.11-.184 0-.257l-3.421-1.975a.483.483 0 0 0-.466 0l-2.746 1.594c-.123 0-.098.184 0 .258l3.433 1.974Zm-35.863 10.83-2.759 1.594c-.11.062-.098.184 0 .258l3.421 1.974a.497.497 0 0 0 .454 0l2.758-1.594c.111 0 .098-.184 0-.258l-3.421-1.974a.506.506 0 0 0-.453-.037v.037Zm-29.549 26.982a.509.509 0 0 0 .454 0l2.746-1.595c.123-.061.11-.184 0-.257l-3.421-1.975a.52.52 0 0 0-.466 0l-2.746 1.595c-.123.061-.098.183 0 .257l3.433 1.975Zm-6.633-6.108-2.747 1.582c-.122.074-.098.184 0 .27l3.421 1.974a.486.486 0 0 0 .454 0l2.746-1.582c.123-.073.111-.184 0-.269l-3.421-1.975a.507.507 0 0 0-.453 0Zm11.133 3.679 2.746-1.582c.123-.073.111-.184 0-.27l-3.421-1.974a.51.51 0 0 0-.466 0l-2.746 1.582c-.123.073-.098.184 0 .27l3.421 1.974a.486.486 0 0 0 .441.049l.025-.049Zm4.021-2.318 2.747-1.582c.122-.073.11-.196 0-.27l-3.421-1.974a.568.568 0 0 0-.466 0l-2.746 1.594c-.123.062-.098.184 0 .258l3.42 1.987a.498.498 0 0 0 .442.036l.024-.049Zm4.022-2.318 2.746-1.594c.123-.061.111-.184 0-.258l-3.42-1.986a.513.513 0 0 0-.466 0l-2.747 1.594c-.122.061-.098.184 0 .258l3.421 1.974a.532.532 0 0 0 .441.061l.025-.049Zm-15.155-1.422-2.746 1.594c-.123 0-.098.184 0 .258l3.421 1.986a.486.486 0 0 0 .453 0l2.747-1.582c.122-.073.11-.196 0-.27l-3.421-1.974a.575.575 0 0 0-.478.037l.024-.049Zm4.022-2.318-2.771 1.668c-.123.061-.098.184 0 .257l3.421 1.975a.509.509 0 0 0 .453 0l2.747-1.595c.123-.061.11-.184 0-.257l-3.421-1.975a.492.492 0 0 0-.454-.024l.025-.049Zm16.099-9.297-2.759 1.595c-.11 0-.098.184 0 .257l3.421 1.987a.482.482 0 0 0 .453 0l2.759-1.582c.11-.074.098-.196 0-.27l-3.494-1.913a.542.542 0 0 0-.405-.025l.025-.049Zm-4.022 2.331-2.759 1.582c-.11.073-.098.196 0 .269l3.421 1.975a.54.54 0 0 0 .454 0l2.746-1.594c.123-.074.111-.184 0-.27l-3.433-1.913a.486.486 0 0 0-.454 0l.025-.049Zm8.043-4.649-2.759 1.595c-.11.061-.098.184 0 .257l3.421 1.975a.512.512 0 0 0 .454 0l2.759-1.595c.11-.061.098-.184 0-.257l-3.421-1.975a.517.517 0 0 0-.417.049l-.037-.049Zm-16.098 9.297-2.747 1.582c-.123.073-.098.184 0 .27l3.421 1.974a.486.486 0 0 0 .454 0l2.746-1.582c.123-.073.11-.184 0-.27l-3.421-1.974a.517.517 0 0 0-.478.049l.025-.049Zm4.021-2.331-2.746 1.595c-.123.061-.098.184 0 .257l3.42 1.975a.502.502 0 0 0 .454 0l2.747-1.594c.122 0 .11-.184 0-.258l-3.421-1.975a.527.527 0 0 0-.478.05l.024-.05Zm-1.974 16.95 2.759-1.582c.11-.074.098-.184 0-.27l-3.421-1.975a.497.497 0 0 0-.454 0l-2.758 1.583c-.111.073-.098.183 0 .269l3.42 1.975a.495.495 0 0 0 .43.049l.024-.049Zm-24.644-2.98-3.421-1.975a.51.51 0 0 0-.454 0l-2.758 1.68c-.11.062-.099.184 0 .258l3.42 1.974a.498.498 0 0 0 .454 0l2.759-1.594c.122-.098.11-.221-.025-.294l.025-.049Zm6.375 1.962-3.433-1.975a.497.497 0 0 0-.453 0l-4.23 2.453c-.123.062-.099.184 0 .258l3.42 1.987a.496.496 0 0 0 .454 0l4.23-2.453c.135-.074.123-.074-.012-.221l.024-.049Zm-11.672-5.764-3.42-1.975a.497.497 0 0 0-.455 0l-3.396 1.95c-.11.074-.098.184 0 .27l3.482 2.036a.497.497 0 0 0 .454 0l3.396-1.95c.061-.086.05-.196-.086-.282l.025-.049Zm2.6-1.497a.498.498 0 0 0 .453 0l2.746-1.594c.123-.061.11-.184 0-.258l-3.433-1.974a.497.497 0 0 0-.453 0l-2.747 1.594c-.122.062-.11.184 0 .258l3.433 1.974Zm15.019 9.481-3.433-1.987a.486.486 0 0 0-.454 0l-5.26 3.091c-.122.073-.11.184 0 .269l3.421 1.975a.51.51 0 0 0 .466 0l5.284-3.054c.099-.049.086-.172-.049-.245l.025-.049Zm2.979 3.924-3.421-1.986a.482.482 0 0 0-.453 0l-3.396 1.95c-.111.073-.099.184 0 .269l3.42 1.975a.486.486 0 0 0 .454 0l3.396-1.95c.135-.074.135-.074-.024-.208l.024-.05Zm11.906-30.661a.536.536 0 0 0 .453 0l2.747-1.594c.122 0 .11-.184 0-.258l-3.421-1.986a.51.51 0 0 0-.466 0l-2.746 1.582c-.123.073-.098.196 0 .27l3.433 1.986Zm-8.093 4.685a.486.486 0 0 0 .454 0l2.747-1.582c.122-.073.11-.184 0-.27l-3.434-1.974a.482.482 0 0 0-.453 0l-2.747 1.582c-.122.074-.11.184 0 .27l3.433 1.974Zm-17.84 10.303a.496.496 0 0 0 .454 0l2.747-1.583c.123-.073.11-.184 0-.269l-3.42-1.914a.522.522 0 0 0-.467 0l-2.746 1.582c-.123.074-.098.184 0 .27l3.433 1.914Zm21.862-12.633a.46.46 0 0 0 .454 0l2.746-1.594c.123-.062.11-.184 0-.258l-3.433-1.974a.496.496 0 0 0-.454 0l-2.746 1.594c-.123.061-.11.184 0 .258l3.433 1.974Zm-8.055 4.648a.522.522 0 0 0 .466 0l2.746-1.594c.123-.061.098-.184 0-.258l-3.421-1.974a.496.496 0 0 0-.453 0l-2.747 1.594c-.123 0-.11.184 0 .258l3.409 1.974Zm2.452 24.063a.524.524 0 0 0-.466 0l-4.23 2.453c-.111 0-.098.184 0 .258l3.421 1.974a.536.536 0 0 0 .453 0l4.23-2.453c.123-.061.111-.184 0-.257l-3.408-1.975Zm-8.227-20.727a.537.537 0 0 0 .453 0l2.747-1.594c.122-.074.11-.184 0-.258l-3.421-1.986a.51.51 0 0 0-.466 0l-2.746 1.582c-.123.073-.098.196 0 .269l3.433 1.987Zm-4.022 2.318a.497.497 0 0 0 .454 0l2.746-1.594c.123 0 .111-.184 0-.258l-3.42-1.974a.524.524 0 0 0-.466 0l-2.747 1.594c-.123.061-.098.184 0 .258l3.433 1.974Zm86.783-24.627a.54.54 0 0 0-.454 0l-6.78 3.913c-.11.073-.098.184 0 .269l3.421 1.975a.537.537 0 0 0 .453 0l6.781-3.912c.11-.074.098-.197 0-.27l-3.421-1.975Zm-8.889 5.139a.512.512 0 0 0-.454 0l-2.759 1.594c-.11.062-.098.184 0 .258l3.421 1.975a.512.512 0 0 0 .454 0l2.759-1.595c.11 0 .098-.184 0-.257l-3.421-1.975Zm-54.574 30.097 2.759-1.594c.11-.062.098-.184 0-.258l-3.421-1.975a.509.509 0 0 0-.453 0l-2.759 1.595c-.11.061-.098.184 0 .257l3.421 1.975a.46.46 0 0 0 .49 0h-.037Zm46.531-25.461a.498.498 0 0 0-.454 0l-2.759 1.582c-.11.074-.098.196 0 .27l3.421 1.975c.071.032.149.05.227.05a.556.556 0 0 0 .227-.05l2.758-1.595c.111 0 .098-.184 0-.257l-3.42-1.975Zm20.954-12.093a.471.471 0 0 0-.454 0l-2.759 1.595c-.11.061-.098.184 0 .257l3.482 1.95a.5.5 0 0 0 .454 0l2.759-1.594c.11-.061.098-.184 0-.258l-3.482-1.95Zm7.442-.355-8.276-4.796a.54.54 0 0 0-.454 0l-2.746 1.595c-.123.061-.111.184 0 .257l8.313 4.808a.493.493 0 0 0 .453 0l2.759-1.582c.135-.086.135-.172-.012-.282h-.037Zm-43.428 21.131a.497.497 0 0 0-.454 0l-3.396 1.95c-.111.074-.098.184 0 .27l3.421 1.975a.493.493 0 0 0 .453 0l3.397-1.95c.11-.074.098-.184 0-.27l-3.421-1.975Zm10.164-5.862a.52.52 0 0 0-.466 0l-4.23 2.453c-.11.073-.098.196 0 .27l3.421 1.974a.537.537 0 0 0 .454 0l4.23-2.453c.122-.061.11-.184 0-.257l-3.409-1.987Zm-19.483 11.246a.508.508 0 0 0-.453 0l-22.634 13.062c-.123.061-.11.184 0 .258l3.421 1.974a.52.52 0 0 0 .466 0l22.646-13.086c.122 0 .098-.184 0-.258l-3.446-1.95Zm-23.921 13.81a.497.497 0 0 0-.226-.056.498.498 0 0 0-.227.056l-3.384 1.95c-.123.074-.111.184 0 .27l3.433 1.974a.486.486 0 0 0 .453 0l3.384-1.95c.123-.073.098-.184 0-.269l-3.433-1.975Zm28.581-16.508a.497.497 0 0 0-.454 0l-3.384 1.95c-.123.074-.11.184 0 .27l3.421 1.975a.564.564 0 0 0 .466 0l3.384-1.963c.11 0 .098-.184 0-.257l-3.433-1.975Zm-33.203 19.219a.486.486 0 0 0-.454 0l-3.384 1.95c-.122.073-.098.184 0 .269l3.421 1.975a.54.54 0 0 0 .454 0l3.384-1.962c.122-.062.11-.184 0-.258l-3.421-1.974Zm42.558-24.529a.5.5 0 0 0-.454 0l-3.396 1.962c-.111.061-.098.184 0 .258l3.421 1.974a.495.495 0 0 0 .453 0l3.396-1.962c.111-.062.099-.184 0-.258l-3.42-1.974Zm14.394-8.377a.537.537 0 0 0-.454 0l-2.758 1.594c-.111.074-.098.184 0 .258l3.42 1.987a.497.497 0 0 0 .454 0l2.759-1.582c.11-.074.098-.197 0-.27l-3.421-1.987Zm8.73-6.451 2.746-1.594c.123-.062.098-.184 0-.258l-3.421-1.975a.508.508 0 0 0-.453 0l-2.747 1.595c-.122.061-.11.184 0 .257l3.421 1.975a.523.523 0 0 0 .454 0Zm-18.674-.515 2.747-1.582c.122-.074.11-.196 0-.27l-3.421-1.975a.567.567 0 0 0-.466 0l-2.746 1.595c-.123.073-.098.184 0 .257l3.42 1.987a.493.493 0 0 0 .466-.012Zm-8.447 16.164 8.043-4.648c.11 0 .098-.184 0-.257l-3.421-1.987a.486.486 0 0 0-.454 0l-8.043 4.648c-.122 0-.11.184 0 .258l3.421 1.974a.53.53 0 0 0 .454.012Zm22.609-13.343a.522.522 0 0 0 .466 0l2.746-1.582c.123-.074.098-.184 0-.27l-3.421-1.975a.497.497 0 0 0-.453 0l-2.759 1.631c-.123.074-.11.184 0 .27l3.421 1.926Zm-4.426-2.809 2.746-1.582c.123-.074.11-.196 0-.27l-3.433-1.974a.54.54 0 0 0-.454 0l-2.746 1.594c-.123.061-.111.184 0 .258l3.421 1.986a.48.48 0 0 0 .49-.012h-.024Zm-22.205 18.47 2.746-1.582c.123-.073.099-.184 0-.27l-3.42-1.974a.54.54 0 0 0-.454 0l-2.746 1.594c-.123.074-.111.184 0 .27l3.42 1.975a.516.516 0 0 0 .479-.013h-.025Zm17.766-10.498a.463.463 0 0 0 .454 0l2.758-1.594c.111-.062.099-.184 0-.258l-3.469-1.987a.512.512 0 0 0-.454 0l-2.759 1.595c-.11 0-.098.184 0 .257l3.47 1.987Zm-37.862 22.076 2.759-1.582c.11-.074.098-.184 0-.27l-3.421-1.975a.551.551 0 0 0-.453 0l-2.759 1.595c-.11.073-.098.184 0 .27l3.47 1.962a.483.483 0 0 0 .404 0Zm4.022-2.318 2.759-1.594c.11-.062.098-.184 0-.258l-3.507-1.962a.496.496 0 0 0-.454 0l-2.758 1.594c-.111 0-.098.184 0 .258l3.42 1.974a.503.503 0 0 0 .54.025v-.037Zm-8.043 4.648 2.758-1.594c.111 0 .099-.184 0-.258l-3.42-1.987a.497.497 0 0 0-.454 0l-2.759 1.583c-.11.073-.098.196 0 .269l3.421 1.975a.547.547 0 0 0 .454.049v-.037Zm16.098-9.296 2.747-1.595c.11-.061.098-.184 0-.257l-3.421-1.975a.509.509 0 0 0-.454 0l-2.746 1.595c-.123.061-.11.184 0 .257l3.421 1.975a.488.488 0 0 0 .453.037v-.037Zm-4.033 2.318 2.758-1.582c.111-.074.098-.184 0-.27l-3.421-1.975a.493.493 0 0 0-.453 0l-2.759 1.582c-.11.074-.098.184 0 .27l3.421 1.975a.488.488 0 0 0 .454.037v-.037Zm8.055-4.636 2.746-1.595c.123 0 .098-.184 0-.257l-3.42-1.987a.498.498 0 0 0-.454 0l-2.746 1.582c-.123.074-.111.196 0 .27l3.42 1.975a.564.564 0 0 0 .454.049v-.037Zm16.846-35.26a.497.497 0 0 0 .454 0l2.759-1.583c.11-.073.098-.183 0-.269l-.907-.528a.525.525 0 0 0-.466 0l-2.747 1.595c-.122.061-.098.184 0 .257l.907.528Zm-19.703 12.828a.486.486 0 0 0 .454 0l2.759-1.582c.11-.074.098-.184 0-.27l-3.421-1.974a.486.486 0 0 0-.454 0l-2.759 1.582c-.11.073-.098.184 0 .27l3.421 1.974Zm8.043-4.648a.54.54 0 0 0 .454 0l2.759-1.594c.11 0 .098-.184 0-.258l-3.421-1.987a.497.497 0 0 0-.454 0l-2.758 1.582c-.111.074-.099.197 0 .27l3.42 1.987Zm-12.947 7.481a.537.537 0 0 0 .453 0l2.747-1.594c.123 0 .098-.184 0-.258l-3.421-1.986a.486.486 0 0 0-.454 0l-2.746 1.582c-.123.073-.11.196 0 .269l3.421 1.987Zm8.926-5.163a.46.46 0 0 0 .453 0l2.722-1.521c.111-.061.098-.184 0-.257l-3.42-1.975a.502.502 0 0 0-.454 0l-2.759 1.594c-.11.062-.098.184 0 .258l3.458 1.901Zm-16.982 9.811a.513.513 0 0 0 .466 0l2.747-1.582c.122-.073.098-.184 0-.269l-3.421-1.975a.486.486 0 0 0-.454 0l-2.746 1.582c-.123.074-.111.184 0 .27l3.408 1.974Zm4.022-2.317a.522.522 0 0 0 .466 0l2.746-1.595c.123-.061.098-.184 0-.257l-3.42-1.975a.502.502 0 0 0-.454 0l-2.747 1.594c-.122 0-.11.184 0 .258l3.409 1.975Zm20.598-13.344a.497.497 0 0 0 .454 0l2.746-1.582c.123-.074.111-.197 0-.27l-.907-.527a.51.51 0 0 0-.466 0l-2.746 1.582c-.123.073-.098.184 0 .269l.919.528Zm12.065-6.979a.46.46 0 0 0 .454 0l2.758-1.594c.111-.061.099-.184 0-.258l-.907-.527a.51.51 0 0 0-.466 0l-2.746 1.582c-.123.074-.098.184 0 .27l.907.527Zm7.185 4.158a.537.537 0 0 0 .454 0l2.758-1.594c.111-.074.098-.184 0-.27l-3.42-1.975a.5.5 0 0 0-.454 0l-2.759 1.582c-.11.074-.098.184 0 .27l3.421 1.987Zm11.108 10.829 2.747-1.594c.122-.073.098-.184 0-.27l-3.421-1.974a.486.486 0 0 0-.454 0l-2.746 1.582c-.123.073-.11.184 0 .27l3.384 1.986a.561.561 0 0 0 .49 0Zm-26.336-10.326a.509.509 0 0 0 .454 0l2.758-1.595c.111 0 .098-.183 0-.257l-.907-.527a.525.525 0 0 0-.466 0l-2.746 1.594c-.123 0-.099.184 0 .257l.907.528Zm-32.663 20.31a.535.535 0 0 0 .466 0l2.746-1.595c.123 0 .098-.184 0-.257l-3.421-1.975a.508.508 0 0 0-.453 0l-2.747 1.595c-.122 0-.11.184 0 .257l3.409 1.975Z"/><path fill="#455A64" d="M49.721 189.739a6.834 6.834 0 0 1-2.98-5.004l-5.136-85.974a6.133 6.133 0 0 1 2.93-5.25l99.313-57.384a6.266 6.266 0 0 1 5.493 0 6.879 6.879 0 0 1 2.98 5.016l5.137 85.973a6.133 6.133 0 0 1-2.759 5.115l-99.313 57.385a6.34 6.34 0 0 1-5.665.123Z"/><path fill="#fff" d="M49.721 189.739a6.834 6.834 0 0 1-2.98-5.004l-5.136-85.974a6.133 6.133 0 0 1 2.93-5.25l99.313-57.384a6.266 6.266 0 0 1 5.493 0 6.879 6.879 0 0 1 2.98 5.016l5.137 85.973a6.133 6.133 0 0 1-2.759 5.115l-99.313 57.385a6.34 6.34 0 0 1-5.665.123Z" opacity=".4"/><path fill="#455A64" d="m49.893 96.823 99.314-57.385a1.936 1.936 0 0 1 3.163 1.705l5.137 85.973a6.133 6.133 0 0 1-2.758 5.115l-99.314 57.385a1.94 1.94 0 0 1-2.938-.598 1.939 1.939 0 0 1-.213-1.107l-5.137-85.986a6.038 6.038 0 0 1 2.746-5.102Z"/><path fill="#fff" d="m52.247 98.896 95.377-55.08a1.546 1.546 0 0 1 2.526 1.362l4.475 74.948a4.905 4.905 0 0 1-2.194 4.084l-94.642 54.674a1.56 1.56 0 0 1-1.727.165 1.565 1.565 0 0 1-.824-1.526l-5.161-74.568a4.787 4.787 0 0 1 2.17-4.06Z"/><path fill="#455A64" d="m318.444 184.943 12.715-7.358a6.83 6.83 0 0 0 3.053-6.709l-4.684-24.357 5.542-3.201 27.685 22.407c.368 1.95 9.061 18.924 6.401 28.331-2.355 8.29-15.94 9.186-17.485 10.056l-33.227-12.791v-6.378Z"/><path fill="#455A64" d="m351.671 204.137 12.702-7.359a6.819 6.819 0 0 0 3.065-6.708l-4.683-24.345 5.529-3.201 5.358 27.852a10.288 10.288 0 0 1-4.622 10.119l-17.349 10.02v-6.378Z"/><path fill="#000" d="m351.671 204.137 12.702-7.359a6.819 6.819 0 0 0 3.065-6.708l-4.683-24.345 5.529-3.201 5.358 27.852a10.288 10.288 0 0 1-4.622 10.119l-17.349 10.02v-6.378Z" opacity=".3"/><path fill="#455A64" d="m318.444 184.943 33.227 19.194v6.402l-33.227-19.194v-6.402Z"/><path fill="#fff" d="m318.444 184.943 33.227 19.194v6.402l-33.227-19.194v-6.402Z" opacity=".4"/><path fill="#455A64" d="M287.952 23.36a6.322 6.322 0 0 0-2.771 5.016v101.966a6.545 6.545 0 0 0 2.955 5.114l127.06 73.378c.854.54 1.839.835 2.848.856a5.544 5.544 0 0 0 5.648-5.762V101.962a6.521 6.521 0 0 0-2.955-5.114L293.678 23.47a6.328 6.328 0 0 0-5.726-.11Z"/><path fill="#455A64" d="M415.195 208.834a5.538 5.538 0 0 0 7.813-2.01 5.55 5.55 0 0 0 .684-2.895V101.962a6.052 6.052 0 0 0-.858-2.907l-98.872 57.091 91.233 52.688Z"/><path fill="#22343D" d="M415.489 208.614a5.549 5.549 0 0 0 5.701.085 5.54 5.54 0 0 0 2.759-4.991l-.551-101.979a6.14 6.14 0 0 0-.883-2.906l-98.566 57.642 91.54 52.149Z" opacity=".2"/><path fill="#455A64" d="M285.181 130.342V28.376c0-1.889 1.324-2.65 2.955-1.717l127.06 73.39a6.524 6.524 0 0 1 2.954 5.114V207.13c0 1.888-1.324 2.649-2.954 1.704l-127.06-73.378a6.545 6.545 0 0 1-2.955-5.114Z"/><path fill="#22343D" d="M285.181 130.342V28.376c0-1.889 1.324-2.65 2.955-1.717l127.06 73.39a6.524 6.524 0 0 1 2.954 5.114V207.13c0 1.888-1.324 2.649-2.954 1.704l-127.06-73.378a6.545 6.545 0 0 1-2.955-5.114Z" opacity=".4"/><path fill="#fff" d="m290.318 31.123 122.707 70.864a5.234 5.234 0 0 1 2.354 4.096v90.524c0 1.508-1.054 2.121-2.354 1.373l-122.707-70.863a5.235 5.235 0 0 1-1.674-1.765 5.238 5.238 0 0 1-.693-2.332V32.484c0-1.508 1.055-2.122 2.367-1.361Z"/><path fill="#37474F" d="m271.154 180.221-27.342 15.785a5.542 5.542 0 0 0 0 9.811L332.09 256.8a6.515 6.515 0 0 0 5.91 0l27.342-15.784a5.554 5.554 0 0 0 0-9.811l-88.279-50.984a6.498 6.498 0 0 0-5.909 0Z"/><path fill="#263238" d="M335.045 257.487a5.946 5.946 0 0 0 2.955-.711l27.342-15.784a5.559 5.559 0 0 0 0-9.812l-2.845-1.643h-27.452v27.95Z"/><path fill="#455A64" d="m365.355 231.229-88.279-50.983a6.525 6.525 0 0 0-5.91 0l-27.341 15.797c-1.631.932-1.631 2.452 0 3.409l88.278 50.983a6.565 6.565 0 0 0 5.898 0l27.342-15.796c1.655-.932 1.655-2.465.012-3.41Z"/><path fill="#37474F" d="M352.762 228.702a.537.537 0 0 1-.454 0l-2.709-1.569c-.111 0-.098-.184 0-.258l.895-.515a.509.509 0 0 1 .453 0l2.71 1.569c.11.062.098.184 0 .258l-.895.515ZM348.802 226.421a.537.537 0 0 1-.454 0l-2.709-1.57c-.111 0-.098-.184 0-.257l.895-.515a.51.51 0 0 1 .441 0l2.722 1.569c.111.062.098.184 0 .258l-.895.515ZM356.723 230.995a.462.462 0 0 1-.442 0l-2.709-1.557c-.123-.073-.111-.184 0-.269l.895-.515a.486.486 0 0 1 .454 0l2.709 1.557c.123.073.111.184 0 .27l-.907.514ZM360.696 233.289a.544.544 0 0 1-.454 0l-2.71-1.557c-.122-.062-.098-.184 0-.258l.895-.515a.528.528 0 0 1 .442 0l2.722 1.57c.11.073.098.184 0 .257l-.895.503ZM321.779 215.224l-3.384 1.938c-.122.086-.147.196 0 .27l4.586 2.649a.537.537 0 0 0 .454 0l3.371-1.95c.135-.074.147-.184 0-.258l-4.598-2.649a.481.481 0 0 0-.429 0ZM270.234 185.458l-3.371 1.95c-.135.074-.147.197 0 .258l2.709 1.57a.512.512 0 0 0 .454 0l3.372-1.95c.135-.074.147-.184 0-.258l-2.71-1.557a.503.503 0 0 0-.454-.013ZM274.207 187.752l-3.372 1.95c-.135.073-.147.184 0 .257l2.71 1.57a.537.537 0 0 0 .454 0l3.371-1.95c.135-.073.147-.196 0-.257l-2.722-1.57a.51.51 0 0 0-.441 0ZM266.936 198.618l3.371-1.95c.135-.086.148-.196 0-.258l-2.623-1.618a.462.462 0 0 0-.442 0l-3.372 1.95c-.134.073-.147.196 0 .257l2.588 1.619a.487.487 0 0 0 .478 0ZM270.896 200.85l3.372-1.95c.135-.073.147-.184 0-.257l-2.71-1.558a.486.486 0 0 0-.453 0l-3.372 1.95c-.135.074-.147.196 0 .258l2.722 1.569a.461.461 0 0 0 .222.048.467.467 0 0 0 .219-.06ZM274.869 203.144l3.371-1.95c.123-.074.148-.197 0-.258l-2.709-1.57a.512.512 0 0 0-.454 0l-3.372 1.95c-.134.074-.147.184 0 .258l2.71 1.557a.503.503 0 0 0 .454.013ZM278.829 205.437l3.371-1.95c.135-.086.148-.196 0-.258l-2.721-1.569a.462.462 0 0 0-.442 0l-3.372 1.95c-.134.073-.147.196 0 .257l2.71 1.57a.486.486 0 0 0 .454 0ZM278.167 190.033l-3.372 1.95c-.135.086-.147.196 0 .258l2.722 1.569a.462.462 0 0 0 .442 0l3.371-1.95c.135-.073.147-.196 0-.257l-2.709-1.57a.54.54 0 0 0-.454 0ZM282.128 192.326l-3.409 1.95c-.135.074-.147.197 0 .258l2.71 1.57a.509.509 0 0 0 .453 0l3.372-1.95c.123-.074.147-.184 0-.258l-2.71-1.557a.481.481 0 0 0-.416-.013ZM309.947 219.468c.135-.074.148-.184 0-.258l-2.709-1.558a.497.497 0 0 0-.454 0l-3.372 1.95c-.134.074-.147.197 0 .258l2.71 1.57a.509.509 0 0 0 .454 0l3.371-1.962ZM313.847 210.637l-3.372 1.95c-.135.086-.147.196 0 .258l2.71 1.57a.493.493 0 0 0 .453 0l3.372-1.95c.135-.074.147-.197 0-.258l-2.734-1.582a.49.49 0 0 0-.429.012ZM295.762 220.78l3.371-1.95c.135-.074.148-.196 0-.258l-2.672-1.557a.502.502 0 0 0-.454 0l-3.372 1.937c-.135.086-.147.197 0 .27l2.722 1.558a.47.47 0 0 0 .405 0ZM303.106 221.123c.122-.086.147-.196 0-.27l-2.71-1.557a.486.486 0 0 0-.454 0l-3.371 1.95c-.135.074-.147.196 0 .257l2.709 1.57a.5.5 0 0 0 .454 0l3.372-1.95ZM309.886 208.356l-3.372 1.95c-.135.074-.16.184 0 .258l2.71 1.557a.482.482 0 0 0 .453 0l3.372-1.95c.135-.073.147-.196 0-.257l-2.71-1.57a.51.51 0 0 0-.453.012ZM290.06 196.901l-3.372 1.95c-.135.086-.147.196 0 .258l2.722 1.569a.458.458 0 0 0 .441 0l3.372-1.95c.135-.073.147-.196 0-.257l-2.71-1.57a.537.537 0 0 0-.453 0ZM305.913 206.063l-3.372 1.95c-.135.073-.147.196 0 .257l2.71 1.57a.472.472 0 0 0 .441 0l3.384-1.938c.123-.086.148-.196 0-.27l-2.709-1.557a.485.485 0 0 0-.454-.012ZM286.075 194.62l-3.372 1.95c-.134.073-.147.184 0 .257l2.71 1.558a.498.498 0 0 0 .454 0l3.372-1.95c.134-.074.147-.196 0-.258l-2.722-1.569a.515.515 0 0 0-.442.012ZM294.021 199.194l-3.372 1.951c-.135.073-.147.196 0 .257l2.709 1.57a.487.487 0 0 0 .442 0l3.384-1.95c.122-.074.147-.184 0-.258l-2.71-1.557a.48.48 0 0 0-.453-.013ZM297.993 201.488l-3.335 1.95c-.135.074-.148.184 0 .258l2.709 1.557a.486.486 0 0 0 .454 0l3.372-1.95c.134-.073.147-.196 0-.257l-2.722-1.57a.517.517 0 0 0-.478.012ZM302.015 203.769l-3.372 1.95c-.135.086-.147.196 0 .258l2.71 1.57a.493.493 0 0 0 .453 0l3.372-1.95c.135-.074.147-.197 0-.258l-2.71-1.57a.537.537 0 0 0-.453 0ZM286.762 210.012l3.372-1.95c.123-.074.147-.197 0-.258l-2.71-1.57a.509.509 0 0 0-.453 0l-3.348 1.975c-.134.073-.147.184 0 .257l2.71 1.558a.488.488 0 0 0 .429-.012ZM282.789 207.718l3.372-1.95c.135-.073.147-.184 0-.257l-2.71-1.558a.498.498 0 0 0-.454 0l-3.335 2.024c-.134.073-.147.196 0 .257l2.722 1.57a.474.474 0 0 0 .405-.086ZM275.102 193.847l-3.372 1.938c-.135.086-.147.196 0 .27l2.71 1.557a.482.482 0 0 0 .453 0l3.372-1.95c.123-.073.147-.196 0-.257l-2.71-1.57a.498.498 0 0 0-.453.012ZM271.142 191.554l-3.372 1.95c-.135.073-.147.184 0 .257l2.722 1.57a.51.51 0 0 0 .441 0l3.372-1.95c.135-.073.147-.196 0-.257l-2.71-1.57a.537.537 0 0 0-.453 0ZM305.987 217.223c.135-.073.147-.196 0-.257l-2.71-1.57a.46.46 0 0 0-.441 0l-3.372 1.95c-.135.073-.159.196 0 .257l2.71 1.57a.486.486 0 0 0 .453 0l3.36-1.95ZM298.643 216.88l3.372-1.95c.122-.074.147-.197 0-.258l-2.71-1.57a.509.509 0 0 0-.453 0l-3.372 1.95c-.135.074-.147.184 0 .258l2.709 1.557a.464.464 0 0 0 .454.013ZM294.658 214.562l3.372-1.95c.135-.074.147-.184 0-.258l-2.649-1.471a.482.482 0 0 0-.453 0l-3.372 1.95c-.135.073-.147.196 0 .257l2.71 1.57a.494.494 0 0 0 .392-.098ZM290.722 212.305l3.372-1.95c.135-.086.147-.196 0-.258l-2.722-1.569a.462.462 0 0 0-.441 0l-3.372 1.95c-.135.086-.147.196 0 .257l2.71 1.57a.482.482 0 0 0 .453 0ZM298.888 207.583l-3.372 1.938c-.135.086-.147.196 0 .27l2.71 1.558a.466.466 0 0 0 .441 0l3.384-1.95c.123-.074.147-.197 0-.258l-2.71-1.57a.498.498 0 0 0-.453.012ZM283.034 198.422l-3.372 1.95c-.134.073-.147.184 0 .257l2.722 1.57a.514.514 0 0 0 .442 0l3.372-1.95c.134-.073.147-.196 0-.257l-2.71-1.57a.54.54 0 0 0-.454 0ZM286.995 200.715l-3.372 1.938c-.134.086-.147.196 0 .27l2.71 1.557a.486.486 0 0 0 .454 0l3.371-1.95c.123-.073.148-.196 0-.257l-2.709-1.57a.502.502 0 0 0-.454.012ZM279.074 196.165l-3.372 1.95c-.134.074-.147.196 0 .258l2.71 1.57a.509.509 0 0 0 .454 0l3.372-1.938c.134-.086.147-.196 0-.27l-2.722-1.57a.473.473 0 0 0-.442 0ZM294.928 205.29l-3.372 1.913c-.135.074-.147.184 0 .258l2.71 1.569a.537.537 0 0 0 .453 0l3.372-1.95c.135-.073.147-.196 0-.257l-2.71-1.57a.547.547 0 0 0-.453.037ZM290.98 202.996l-3.372 1.951c-.135.073-.147.196 0 .257l2.709 1.57a.512.512 0 0 0 .454 0l3.372-1.938c.135-.086.147-.196 0-.27l-2.722-1.557a.458.458 0 0 0-.441-.013ZM314.754 216.671l-3.384 1.95c-.123.074-.147.197 0 .258l2.71 1.57a.508.508 0 0 0 .453 0l3.372-1.938c.135-.086.147-.196 0-.27l-2.71-1.557a.458.458 0 0 0-.441-.013ZM318.922 218.977l-5.493 3.177c-.135.073-.147.196 0 .257l2.71 1.57a.537.537 0 0 0 .453 0l5.493-3.177c.135-.073.16-.184 0-.257l-2.709-1.57a.54.54 0 0 0-.454 0Z"/><path fill="#37474F" d="m310.781 219.983-3.371 1.937c-.135.074-.148.197 0 .258l5.897 3.422a.537.537 0 0 0 .454 0l3.371-1.95c.135-.074.148-.196 0-.258l-5.909-3.409a.486.486 0 0 0-.442 0ZM302.86 209.803l-3.372 1.95c-.134.074-.159.196 0 .258l2.71 1.57a.509.509 0 0 0 .454 0l3.372-1.938c.134-.086.147-.196 0-.27l-2.71-1.558a.47.47 0 0 0-.454-.012ZM310.781 214.39l-3.371 1.938c-.135.086-.148.196 0 .257l2.709 1.57a.462.462 0 0 0 .442 0l3.371-1.95c.135-.073.16-.196 0-.257l-2.709-1.57a.502.502 0 0 0-.442.012ZM306.82 212.109l-3.371 1.95c-.135.073-.148.184 0 .257l2.709 1.57a.54.54 0 0 0 .454 0l3.372-1.95c.135-.073.147-.196 0-.257l-2.71-1.57a.54.54 0 0 0-.454 0ZM291.801 218.486l3.372-1.95c.135-.073.147-.196 0-.257l-2.722-1.57a.51.51 0 0 0-.441 0l-3.372 1.95c-.135.074-.147.184 0 .258l2.71 1.569a.537.537 0 0 0 .453 0ZM314.41 215.138l2.71 1.57a.484.484 0 0 0 .441 0l3.372-1.95c.135-.074.16-.184 0-.258l-2.709-1.557a.489.489 0 0 0-.454 0l-3.372 1.95c-.123.061-.123.184.012.245ZM262.338 190.523l4.169 2.453a.486.486 0 0 0 .454 0l3.372-1.95c.122-.073.147-.196 0-.257l-4.169-2.453a.54.54 0 0 0-.454 0l-3.372 1.95c-.11.074-.122.184 0 .257ZM272.723 184.306l3.335 1.925a.5.5 0 0 0 .454 0l3.433-1.962c.135-.086.147-.197 0-.27l-3.347-1.926a.524.524 0 0 0-.441 0l-3.372 1.95c-.196.099-.196.209-.062.283ZM257.201 193.209l5.21 3.017a.544.544 0 0 0 .454 0l3.372-1.95c.135-.085.147-.196 0-.257l-5.223-3.017a.54.54 0 0 0-.454 0l-3.372 1.95c-.086.086-.11.196.013.257ZM305.165 226.483l3.335 1.938a.54.54 0 0 0 .454 0l3.372-1.95c.134-.074.147-.184 0-.258l-3.348-1.925a.494.494 0 0 0-.441 0l-3.372 1.95c-.098.073-.11.184 0 .245ZM252.382 196.006l3.335 1.925a.537.537 0 0 0 .453 0l3.372-1.95c.135-.086.147-.196 0-.257l-3.335-1.938a.537.537 0 0 0-.453 0l-3.372 1.95c-.098.086-.123.196 0 .27ZM302.786 197.49c.135-.074.148-.197 0-.258l-2.722-1.57a.48.48 0 0 0-.441 0l-3.372 1.938c-.135.086-.147.196 0 .27l2.71 1.557a.486.486 0 0 0 .454 0l3.371-1.937ZM310.72 202.064c.123-.073.147-.184 0-.257l-2.71-1.57a.537.537 0 0 0-.453 0l-3.372 1.95c-.135.074-.147.196 0 .257l2.71 1.57a.536.536 0 0 0 .453 0l3.372-1.95ZM306.747 199.844c.135-.085.147-.196 0-.257l-2.709-1.57a.498.498 0 0 0-.454 0l-3.372 1.95c-.135.074-.147.196 0 .258l2.722 1.569a.498.498 0 0 0 .442 0l3.371-1.95ZM314.68 204.358c.135-.074.147-.197 0-.258l-2.722-1.57a.484.484 0 0 0-.441 0l-3.372 1.975c-.135.073-.147.184 0 .257l2.71 1.558a.482.482 0 0 0 .453 0l3.372-1.962ZM299.562 228.531c-.135.074-.147.196 0 .257l4.169 2.453a.536.536 0 0 0 .453 0l3.372-1.95c.135-.073.147-.196 0-.257l-4.181-2.453a.462.462 0 0 0-.441 0l-3.372 1.95ZM297.11 194.252c.123-.074.147-.184 0-.258l-2.636-1.508a.537.537 0 0 0-.453 0l-3.372 1.95c-.135.073-.147.184 0 .257l2.709 1.57a.514.514 0 0 0 .442 0l3.31-2.011ZM293.187 191.971c.135-.086.147-.197 0-.27l-2.71-1.558a.497.497 0 0 0-.454 0l-3.371 1.95c-.135.074-.147.197 0 .258l2.722 1.57a.48.48 0 0 0 .441 0l3.372-1.95ZM285.266 187.384c.123-.074.148-.184 0-.258l-2.709-1.57a.54.54 0 0 0-.454 0l-3.384 2.024c-.135.074-.147.184 0 .258l2.71 1.569a.537.537 0 0 0 .453 0l3.384-2.023ZM289.226 189.677c.135-.073.147-.196 0-.257l-2.722-1.57a.472.472 0 0 0-.441 0l-3.372 1.938c-.135.086-.147.196 0 .269l2.709 1.558a.486.486 0 0 0 .454 0l3.372-1.938ZM287.841 216.193l3.372-1.938c.135-.086.147-.196 0-.27l-2.685-1.557a.486.486 0 0 0-.454 0l-3.372 1.95c-.134.073-.147.196 0 .257l2.71 1.57a.502.502 0 0 0 .429-.012ZM257.606 204.309c-.135.073-.147.196 0 .257l3.335 1.938a.537.537 0 0 0 .453 0l3.372-1.95c.123-.073.147-.196 0-.257l-3.335-2a.497.497 0 0 0-.453 0l-3.372 2.012ZM247.589 198.532c-.123.074-.147.184 0 .258l4.168 2.453a.497.497 0 0 0 .454 0l3.372-1.95c.135-.074.147-.197 0-.258l-4.169-2.453a.509.509 0 0 0-.454 0l-3.371 1.95ZM262.203 206.958c-.134.086-.147.196 0 .257l22.328 12.903a.523.523 0 0 0 .441 0l3.372-1.95c.135-.074.159-.184 0-.258l-22.327-12.914a.5.5 0 0 0-.442 0l-3.372 1.962ZM290.367 223.233c-.135.073-.148.184 0 .257l3.335 1.926a.508.508 0 0 0 .453 0l3.372-1.938c.135-.086.147-.196 0-.27l-3.335-1.925a.54.54 0 0 0-.454 0l-3.371 1.95ZM285.768 220.571c-.122.086-.147.197 0 .27l3.335 1.926a.512.512 0 0 0 .454 0l3.372-1.95c.135-.074.147-.184 0-.258l-3.335-1.925a.472.472 0 0 0-.442 0l-3.384 1.937ZM294.952 225.882c-.134.073-.147.184 0 .257l3.335 1.926a.474.474 0 0 0 .442 0l3.384-1.95c.122-.086.147-.196 0-.258l-3.335-1.937a.54.54 0 0 0-.454 0l-3.372 1.962ZM252.971 201.66c-.135.073-.147.196 0 .257l3.335 1.926a.497.497 0 0 0 .454 0l3.371-1.95c.135-.074.148-.197 0-.258l-3.335-1.925a.482.482 0 0 0-.453 0l-3.372 1.95Z"/><path fill="#37474F" d="m308.978 228.408 3.372-1.95c.135-.073.147-.184 0-.257l-7.884-4.575a.493.493 0 0 0-.453 0l-3.372 1.95c-.135.086-.147.196 0 .258l7.933 4.587a.538.538 0 0 0 .404-.013ZM260.082 200.176l3.371-1.951c.135-.073.148-.196 0-.257l-2.709-1.57a.512.512 0 0 0-.454 0l-3.372 1.938c-.135.086-.147.196 0 .27l2.722 1.557a.478.478 0 0 0 .442.013ZM279.945 211.618l3.372-1.95c.135-.073.147-.184 0-.257l-2.722-1.57a.514.514 0 0 0-.442 0l-3.371 1.95c-.135.074-.148.184 0 .258l2.709 1.569a.54.54 0 0 0 .454 0ZM275.947 209.325l3.372-1.938c.135-.086.147-.196 0-.27l-2.71-1.557a.482.482 0 0 0-.453 0l-3.372 1.95c-.123.073-.147.196 0 .257l2.71 1.57a.498.498 0 0 0 .453-.012ZM283.868 213.912l3.372-1.95c.135-.074.147-.197 0-.258l-2.71-1.57a.509.509 0 0 0-.453 0l-3.335 1.975c-.135.086-.148.196 0 .27l2.721 1.557a.463.463 0 0 0 .405-.024ZM268.015 204.75l3.372-1.95c.135-.073.147-.184 0-.257l-2.722-1.57a.51.51 0 0 0-.441 0l-3.372 1.95c-.135.073-.147.184 0 .257l2.71 1.57a.536.536 0 0 0 .453 0ZM271.975 207.044l3.371-1.95c.135-.074.148-.197 0-.258l-2.709-1.57a.509.509 0 0 0-.454 0l-3.273 1.963c-.135.085-.148.196 0 .269l2.721 1.558a.47.47 0 0 0 .344-.012ZM264.006 202.457l3.372-1.938c.135-.086.147-.196 0-.27l-2.71-1.557a.486.486 0 0 0-.454 0l-3.371 1.95c-.123.073-.148.196 0 .257l2.709 1.57a.505.505 0 0 0 .454-.012ZM327.272 227.844l3.372-1.95c.135-.074.147-.196 0-.257l-2.722-1.57a.51.51 0 0 0-.442 0l-3.371 1.95c-.135.073-.147.184 0 .257l2.709 1.57a.544.544 0 0 0 .454 0ZM332.336 221.307l-3.347 1.95c-.135.074-.148.196 0 .258l2.709 1.57a.54.54 0 0 0 .454 0l3.372-1.95c.135-.074.147-.184 0-.258l-2.722-1.57a.523.523 0 0 0-.466 0ZM336.345 223.601l-3.421 1.999c-.135.086-.147.196 0 .27l2.722 1.557a.462.462 0 0 0 .442 0l3.371-1.95c.135-.074.147-.196 0-.257l-2.709-1.57a.501.501 0 0 0-.405-.049ZM331.232 230.138l3.372-1.95c.135-.074.147-.197 0-.258l-2.71-1.57a.509.509 0 0 0-.454 0l-3.371 1.938c-.135.086-.147.196 0 .27l2.722 1.557a.474.474 0 0 0 .441.013ZM328.363 219.014l-3.371 1.95c-.135.073-.148.196 0 .257l2.709 1.57a.54.54 0 0 0 .454 0l3.372-1.95c.135-.086.147-.196 0-.257l-2.71-1.57a.486.486 0 0 0-.454 0ZM305.693 232.1c-.122.073-.147.184 0 .257l2.71 1.57a.537.537 0 0 0 .453 0l3.372-1.95c.135-.073.147-.184 0-.257l-2.709-1.57a.544.544 0 0 0-.454 0l-3.372 1.95ZM313.65 236.638c-.135.073-.147.196 0 .257l2.722 1.57a.47.47 0 0 0 .441 0l3.372-1.938c.135-.086.147-.196 0-.269l-2.71-1.558a.486.486 0 0 0-.453 0l-3.372 1.938ZM309.69 234.381c-.135.086-.147.196 0 .27l2.709 1.558a.497.497 0 0 0 .454 0l3.372-1.951c.135-.073.147-.196 0-.257l-2.722-1.57a.484.484 0 0 0-.441 0l-3.372 1.95ZM323.312 225.6l3.372-1.938c.135-.086.147-.196 0-.27l-2.71-1.557a.486.486 0 0 0-.453 0l-3.372 1.95c-.135.073-.147.196 0 .257l2.709 1.558a.512.512 0 0 0 .454 0ZM321.006 231.462c.135-.073.147-.196 0-.257l-2.722-1.57a.472.472 0 0 0-.441 0l-3.372 1.938c-.135.085-.147.196 0 .269l2.71 1.558a.486.486 0 0 0 .453 0l3.372-1.938ZM345.271 222.031c.135-.086.147-.196 0-.27l-2.71-1.558a.497.497 0 0 0-.453 0l-3.311 1.963c-.135.073-.147.196 0 .257l2.71 1.57a.496.496 0 0 0 .454 0l3.31-1.962ZM337.351 217.444c.122-.074.147-.184 0-.258l-2.71-1.569a.537.537 0 0 0-.453 0l-3.372 1.95c-.135.073-.147.196 0 .257l2.709 1.644a.544.544 0 0 0 .454 0l3.372-2.024ZM341.311 219.737c.135-.073.147-.196 0-.257l-2.722-1.57a.472.472 0 0 0-.442 0l-3.371 1.938c-.135.086-.147.196 0 .27l2.709 1.557a.486.486 0 0 0 .454 0l3.372-1.938ZM348.79 230.788l-3.372 1.937c-.135.086-.147.197 0 .27l2.71 1.558a.497.497 0 0 0 .454 0l3.371-1.95c.135-.074.148-.196 0-.258l-2.709-1.57a.495.495 0 0 0-.454.013ZM341.458 230.505c-.135.074-.147.184 0 .258l2.71 1.57a.537.537 0 0 0 .454 0l3.371-1.95c.135-.074.148-.184 0-.258l-2.722-1.57a.523.523 0 0 0-.441 0l-3.372 1.95ZM334.947 237.864l3.372-1.95c.134-.073.147-.196 0-.257l-2.722-1.57a.472.472 0 0 0-.442 0l-3.371 1.95c-.135.073-.148.184 0 .257l2.709 1.558a.497.497 0 0 0 .454.012ZM343.702 237.325l3.371-1.951c.135-.073.148-.196 0-.257l-2.709-1.57a.54.54 0 0 0-.454 0l-3.372 1.95c-.134.086-.147.196 0 .258l2.71 1.57a.497.497 0 0 0 .454 0ZM336.639 233.228c-.135.074-.147.184 0 .258l2.71 1.57a.537.537 0 0 0 .453 0l3.372-1.95c.135-.074.147-.197 0-.258l-2.722-1.57a.51.51 0 0 0-.441 0l-3.372 1.95ZM342.28 238.159c.134-.086.147-.197 0-.258l-2.71-1.57a.497.497 0 0 0-.454 0l-3.372 1.95c-.134.074-.147.196 0 .258l2.71 1.57a.54.54 0 0 0 .454 0l3.372-1.95ZM318.211 239.287c-.135.073-.147.184 0 .257l6.67 3.851a.486.486 0 0 0 .454 0l3.372-1.95c.134-.073.147-.196 0-.257l-6.683-3.863a.536.536 0 0 0-.453 0l-3.36 1.962ZM326.144 243.862c-.135.073-.147.196 0 .257l2.722 1.57a.484.484 0 0 0 .441 0l3.372-1.938c.135-.086.147-.196 0-.27l-2.71-1.557a.486.486 0 0 0-.453 0l-3.372 1.938ZM334.089 242.88l3.372-1.938c.134-.085.147-.196 0-.269l-2.673-1.582a.486.486 0 0 0-.454 0l-3.372 1.95c-.135.073-.147.196 0 .257l2.722 1.57a.486.486 0 0 0 .405.012ZM340.857 226.201l-3.371 1.95c-.135.073-.147.196 0 .257l2.709 1.57a.475.475 0 0 0 .442 0l3.384-1.938c.122-.085.147-.196 0-.269l-2.71-1.558a.493.493 0 0 0-.454-.012ZM336.038 228.985l-3.372 1.95c-.135.073-.147.196 0 .257l2.71 1.57a.496.496 0 0 0 .454 0l3.371-1.938c.123-.085.148-.196 0-.269l-2.709-1.558a.497.497 0 0 0-.454-.012ZM329.54 236.356c.123-.074.147-.184 0-.258l-2.709-1.57a.54.54 0 0 0-.454 0l-3.372 1.95c-.135.074-.147.184 0 .258l2.71 1.57a.537.537 0 0 0 .454 0l3.371-1.95ZM330.987 235.522l3.372-1.95c.122-.074.147-.184 0-.258l-2.686-1.582a.536.536 0 0 0-.453 0l-3.372 1.95c-.135.074-.147.196 0 .258l2.71 1.569a.495.495 0 0 0 .429.013ZM351.058 237.398l-2.71-1.557a.482.482 0 0 0-.453 0l-8.191 4.734c-.134.073-.147.196 0 .257l2.71 1.57a.54.54 0 0 0 .454 0l8.19-4.734c.135-.086.159-.196 0-.27ZM330.079 246.449l2.71 1.57a.54.54 0 0 0 .454 0l8.19-4.734c.135-.074.147-.184 0-.257l-2.636-1.632a.54.54 0 0 0-.454 0l-8.19 4.734c-.184.099-.196.209-.074.319ZM355.889 234.884c.123-.086.147-.196 0-.27l-2.71-1.558a.497.497 0 0 0-.453 0l-3.372 1.951c-.135.073-.147.196 0 .257l2.71 1.57a.495.495 0 0 0 .453 0l3.372-1.95ZM330.128 240.599l3.372-1.95c.135-.073.147-.196 0-.257l-2.722-1.57a.47.47 0 0 0-.441 0l-3.372 1.937c-.135.086-.147.197 0 .27l2.71 1.558a.493.493 0 0 0 .453.012ZM320.737 207.853c.135-.073.147-.184 0-.257l-2.685-1.619a.51.51 0 0 0-.441 0L314.276 208c-.135.074-.147.184 0 .258l2.709 1.57a.54.54 0 0 0 .454 0l3.298-1.975ZM328.669 212.44c.123-.086.147-.196 0-.27l-2.709-1.557a.489.489 0 0 0-.454 0l-3.372 1.95c-.135.073-.147.196 0 .257l2.71 1.57a.496.496 0 0 0 .453 0l3.372-1.95ZM324.697 210.147c.135-.074.148-.197 0-.258l-2.709-1.57a.509.509 0 0 0-.454 0l-3.372 1.938c-.134.086-.147.196 0 .27l2.722 1.557a.462.462 0 0 0 .442 0l3.371-1.937ZM332.667 214.721c.135-.073.147-.184 0-.257l-2.722-1.57a.51.51 0 0 0-.441 0l-3.372 1.95c-.135.073-.147.184 0 .257l2.71 1.57a.537.537 0 0 0 .453 0l3.372-1.95ZM407.065 47.57v76.37a6.546 6.546 0 0 0 2.955 5.114l88.279 50.984c1.631.944 2.943.183 2.943-1.705v-76.371a6.522 6.522 0 0 0-2.943-5.114L410.02 45.865c-1.63-.945-2.955-.184-2.955 1.704Z"/><path fill="#459CDE" d="m410.02 129.054 88.279 50.984c1.631.944 2.943.184 2.943-1.705v-73.378l-94.177-54.393v73.378a6.515 6.515 0 0 0 2.955 5.114Z"/><path fill="#EBEBEB" d="m414.385 61.183 29.696 17.17a3.91 3.91 0 0 1 1.778 3.066v5.507c0 1.14-.797 1.594-1.778 1.03l-29.696-17.17a3.92 3.92 0 0 1-1.778-3.066v-5.507c0-1.14.797-1.594 1.778-1.03Z"/><path fill="#FAFAFA" d="M496.215 97.89a2.52 2.52 0 0 1 1.128 1.974c0 .724-.502 1.018-1.128.65a2.447 2.447 0 0 1-1.14-1.962c0-.723.503-1.017 1.14-.662ZM491.703 95.29a2.535 2.535 0 0 1 1.14 1.974c0 .724-.515 1.018-1.14.65a2.456 2.456 0 0 1-1.128-1.962c0-.723.503-1.017 1.128-.662ZM487.154 92.69a2.53 2.53 0 0 1 1.128 1.974c0 .724-.503 1.018-1.128.65a2.458 2.458 0 0 1-1.14-1.962c.049-.723.564-1.017 1.14-.662Z"/><path fill="#EBEBEB" d="m414.385 73.975 40.78 23.547a3.895 3.895 0 0 1 1.766 3.018c0 1.103-.785 1.533-1.766.968l-40.78-23.547a3.862 3.862 0 0 1-1.778-3.017c0-1.104.797-1.533 1.778-.97ZM414.385 82.842l40.78 23.548a3.858 3.858 0 0 1 1.766 3.017c0 1.104-.785 1.533-1.766.969l-40.78-23.548a3.901 3.901 0 0 1-1.778-3.017c0-1.104.797-1.533 1.778-.969ZM414.385 91.697l40.78 23.523a3.894 3.894 0 0 1 1.766 3.017c0 1.104-.785 1.533-1.766.969l-40.78-23.548a3.862 3.862 0 0 1-1.778-3.017c0-1.079.797-1.508 1.778-.944ZM414.385 100.564l40.78 23.548a3.858 3.858 0 0 1 1.766 3.017c0 1.091-.785 1.533-1.766.969l-40.78-23.548a3.896 3.896 0 0 1-1.778-3.017c0-1.104.797-1.533 1.778-.969ZM414.974 112.767l78.384 45.268a5.149 5.149 0 0 1 2.379 4.035v7.359c0 1.508-1.079 2.122-2.391 1.361l-78.286-45.292a5.237 5.237 0 0 1-2.367-4.084v-7.359c-.086-1.484.981-2.097 2.281-1.288Z"/><path fill="#FAFAFA" d="m464.238 89.98 29.574 17.17a3.993 3.993 0 0 1 1.777 3.078l.123 40.62c0 1.129-.785 1.595-1.766 1.03l-29.695-17.17a3.911 3.911 0 0 1-1.778-3.066V90.998c0-1.129.797-1.533 1.765-1.018Z"/><path fill="#263238" d="M468.015 107.113c4.205 2.453 7.614.454 7.614-4.403a15.52 15.52 0 0 0-2.134-7.358l-9.257-5.384c-.968-.564-1.765-.11-1.765 1.018v10.142a15.845 15.845 0 0 0 5.542 5.985ZM495.651 131.973l-5.567-18.997c-.416-1.447-1.324-1.533-2.023-.196l-8.153 15.563-3.323-8.879c-.527-1.411-1.459-1.448-2.084-.074l-7.725 16.839 27.171 15.699c.821.478 1.508.208 1.704-.552v-19.403Z"/><path fill="#FFB900" d="M193.358 20.392 227.418.769c1.3-.76 2.355-.148 2.355 1.36v71.33a5.238 5.238 0 0 1-2.355 4.096l-34.06 19.624c-1.3.748-2.367.135-2.367-1.374V24.463a5.262 5.262 0 0 1 2.367-4.072Z"/><path fill="#FAFAFA" d="m190.991 34.557 38.782-22.395v51.192l-38.782 22.395V34.557Z"/><path fill="#455A64" d="M207.777 49.495c.417-1.447 1.422-1.594 2.244-.331l4.144 6.402 7.773-23.302c.478-1.435 1.423-1.509 2.121-.172l5.714 11.038v20.15l-31.216 18.03 9.22-31.815ZM190.991 47.422a6.13 6.13 0 0 0 5.542-.735 18.4 18.4 0 0 0 8.338-14.423 6.504 6.504 0 0 0-1.643-4.771l-12.261 7.064.024 12.865Z"/><path fill="#FAFAFA" d="M196.57 22.636c1.116-.65 2.023-.123 2.023 1.165a4.414 4.414 0 0 1-2.023 3.483c-1.115.638-2.01.123-2.01-1.226a4.43 4.43 0 0 1 2.01-3.422ZM202.444 19.73l11.366-6.562c.465-.258.846-.074.846.43a1.816 1.816 0 0 1-.846 1.397l-11.366 6.562c-.466.27-.846.073-.846-.43a1.812 1.812 0 0 1 .846-1.398ZM202.444 22.857l6.253-3.68c.466-.27.846-.073.846.43a1.816 1.816 0 0 1-.846 1.398l-6.253 3.68c-.466.269-.846.085-.846-.418a1.815 1.815 0 0 1 .846-1.41ZM199.083 90.103h-.662c-.858 0-1.888-.405-1.888-1.644a2.897 2.897 0 0 1 1.312-2.269c.564-.319 1.042-.184 1.226.282a2.883 2.883 0 0 1 1.226-1.692c.724-.417 1.312-.086 1.312.748a7.354 7.354 0 0 1-1.876 3.814l-.65.76ZM209.015 79.42l4.758-2.735c.22-.135.392 0 .392.221v3.36a.89.89 0 0 1-.392.687l-4.758 2.735c-.208.135-.392 0-.392-.22v-3.36a.93.93 0 0 1 .392-.688Z"/><path fill="#FAFAFA" d="M209.738 84.19c0 .442.172.479.368.086l1.055-2.06-1.423.773v1.202ZM225.666 71.865l-2.735-.883v1.313a5.59 5.59 0 0 0-2.672 3.029 2.134 2.134 0 0 0 .266 1.666 2.159 2.159 0 0 0 1.389.959 2.03 2.03 0 0 1-.724-1.668c.16-1.153.81-1.558 1.741-1.963v1.533l2.735-3.986Z"/><path fill="#404E4C" d="M176.34 3.418v76.37a6.526 6.526 0 0 1-2.943 5.115l-88.279 50.983c-1.63.944-2.942.184-2.942-1.705v-76.37a6.513 6.513 0 0 1 2.942-5.115l88.279-50.983c1.631-.944 2.943-.184 2.943 1.705Z"/><path fill="#02897A" d="m173.397 84.902-88.279 50.984c-1.63.944-2.942.184-2.942-1.705V60.803L176.34 6.41v73.378a6.526 6.526 0 0 1-2.943 5.114Z"/><path fill="#EBEBEB" d="m169.032 17.031-29.696 17.17a3.92 3.92 0 0 0-1.777 3.066v5.507c0 1.14.797 1.594 1.777 1.03l29.696-17.17a3.91 3.91 0 0 0 1.778-3.066v-5.507c.013-1.14-.797-1.594-1.778-1.03Z"/><path fill="#FAFAFA" d="M87.203 53.739a2.525 2.525 0 0 0-1.128 1.974c0 .723.503 1.017 1.128.65a2.452 2.452 0 0 0 1.14-1.962c0-.724-.502-1.018-1.14-.662ZM91.715 51.139a2.539 2.539 0 0 0-1.14 1.973c0 .724.514 1.018 1.14.65a2.452 2.452 0 0 0 1.127-1.962c0-.723-.49-1.017-1.127-.661ZM96.215 48.538a2.526 2.526 0 0 0-1.128 1.975c0 .723.503 1.017 1.128.65a2.451 2.451 0 0 0 1.14-1.962c0-.724-.515-1.018-1.14-.663Z"/><path fill="#EBEBEB" d="m169.033 29.823-40.78 23.548a3.895 3.895 0 0 0-1.766 3.017c0 1.104.785 1.533 1.766.969l40.78-23.548a3.862 3.862 0 0 0 1.778-3.017c.012-1.104-.797-1.533-1.778-.969ZM169.033 38.69l-40.78 23.548a3.857 3.857 0 0 0-1.766 3.017c0 1.104.785 1.533 1.766.969l40.78-23.548a3.901 3.901 0 0 0 1.778-3.017c.012-1.104-.797-1.533-1.778-.969ZM169.033 47.545l-40.78 23.523a3.895 3.895 0 0 0-1.766 3.017c0 1.104.785 1.533 1.766.97l40.78-23.549a3.862 3.862 0 0 0 1.778-3.017c.012-1.079-.797-1.508-1.778-.944ZM169.033 56.412l-40.78 23.548a3.856 3.856 0 0 0-1.766 3.017c0 1.091.785 1.533 1.766.969l40.78-23.548a3.902 3.902 0 0 0 1.778-3.017c.012-1.104-.797-1.533-1.778-.969ZM168.444 68.615 90.06 113.883a5.158 5.158 0 0 0-2.342 4.084v7.359c0 1.508 1.079 2.122 2.378 1.361l78.299-45.292a5.24 5.24 0 0 0 2.366-4.084v-7.359c.061-1.533-1.018-2.146-2.317-1.337Z"/><path fill="#FAFAFA" d="m119.179 45.828-29.573 17.17a3.985 3.985 0 0 0-1.778 3.079l-.123 40.619c0 1.129.785 1.595 1.766 1.031l29.696-17.17a3.92 3.92 0 0 0 1.777-3.067V46.846c0-1.128-.797-1.533-1.765-1.018Z"/><path fill="#263238" d="M115.403 62.961c-4.205 2.453-7.614.454-7.614-4.402a15.518 15.518 0 0 1 2.133-7.36l9.257-5.383c.969-.564 1.766-.11 1.766 1.018v10.142a15.853 15.853 0 0 1-5.542 5.985ZM87.767 87.821l5.566-18.997c.417-1.447 1.324-1.533 2.023-.197l8.154 15.564 3.322-8.88c.528-1.41 1.459-1.447 2.085-.073l7.724 16.84-27.17 15.698c-.834.478-1.508.208-1.704-.552V87.821Z"/><path fill="#F03E3D" d="M356.882 80.475v71.023c0 .736-.515 1.03-1.14.663l-96.788-55.89a2.554 2.554 0 0 1-1.152-1.999V23.237c0-.736.515-1.03 1.152-.662l96.788 55.852a2.58 2.58 0 0 1 1.14 2.048Z"/><path fill="#37474F" d="m258.954 22.587 96.788 55.84a2.577 2.577 0 0 1 1.14 1.999v5.04l-99.08-57.323v-4.906c0-.724.515-1.018 1.152-.65Z"/><path fill="#FAFAFA" d="M352.713 78.635a2.448 2.448 0 0 1 1.14 1.974c0 .724-.502 1.018-1.14.65a2.447 2.447 0 0 1-1.128-1.962c0-.723.503-1.017 1.128-.662ZM348.214 76.035a2.535 2.535 0 0 1 1.14 1.974c0 .724-.515 1.018-1.14.65a2.447 2.447 0 0 1-1.128-1.962c0-.723.503-1.017 1.128-.662ZM343.702 73.435a2.53 2.53 0 0 1 1.128 1.974c0 .724-.503 1.018-1.128.65a2.458 2.458 0 0 1-1.14-1.962c.012-.723.527-1.017 1.14-.662Z"/><path fill="#fff" d="M276.831 45.705c-4.623-2.673-8.362-.502-8.362 4.82a18.458 18.458 0 0 0 8.362 14.485c4.61 2.661 8.349.502 8.349-4.833a18.484 18.484 0 0 0-8.349-14.472Z"/><path fill="#263238" d="M276.266 49.544c-1.496-.87-2.709-.171-2.709 1.57a6.007 6.007 0 0 0 2.709 4.697c1.496.859 2.71.16 2.71-1.57a5.983 5.983 0 0 0-2.71-4.697ZM271.546 59.123c0-2.846 1.986-3.998 4.451-2.576l1.532.896a9.813 9.813 0 0 1 4.463 7.714v.76a6.35 6.35 0 0 1-5.162-.907 16.377 16.377 0 0 1-5.284-5.225v-.662Z"/><path fill="#fff" d="m292.132 55.541 13.009 7.519a2.995 2.995 0 0 1 1.41 2.33c0 .846-.626 1.165-1.41.711l-13.009-7.518a2.964 2.964 0 0 1-1.41-2.33c0-.846.625-1.129 1.41-.712ZM292.132 62.998l21.199 12.265a2.994 2.994 0 0 1 1.398 2.33c0 .846-.626 1.226-1.398.711L292.132 66.04a2.964 2.964 0 0 1-1.41-2.33c0-.847.625-1.166 1.41-.712ZM292.132 68.615l21.199 12.265a3.036 3.036 0 0 1 1.398 2.33c0 .846-.626 1.226-1.398.711l-21.199-12.264a3.016 3.016 0 0 1-1.41-2.343c0-.834.625-1.152 1.41-.699ZM351.659 133.752v8.229c0 .748-.515 1.067-1.165.687l-23.295-13.43-2.073-1.226a2.61 2.61 0 0 1-1.226-2.048v-8.242c0-.748.528-1.055 1.226-.687l25.344 14.644a2.602 2.602 0 0 1 1.189 2.073ZM351.659 90.311v35.665c0 .76-.515 1.067-1.165.687l-23.295-13.491-2.073-1.227a2.578 2.578 0 0 1-1.226-2.035V74.318c0-.76.528-1.055 1.226-.687l25.368 14.607a2.593 2.593 0 0 1 1.165 2.073Z"/><path fill="#263238" d="M323.961 74.318v9.015a12.78 12.78 0 0 0 4.218 4.304c3.555 2.049 6.424.393 6.424-3.679a12.828 12.828 0 0 0-1.557-5.703l-7.896-4.562c-.662-.43-1.189-.172-1.189.625ZM351.659 113.233v12.743c0 .76-.515 1.067-1.165.687l-23.296-13.491 6.977-14.717 4.414 9.59 7.037-14.25 6.033 19.438Z"/><path fill="#fff" d="m264.79 64.384 51.937 29.987a3.528 3.528 0 0 1 1.766 2.624c0 .883-.785 1.14-1.766.576l-51.888-29.974a3.527 3.527 0 0 1-1.815-2.661c0-.859.785-1.128 1.766-.552ZM264.79 72.405l51.937 29.962c.478.27.887.648 1.193 1.104.307.455.503.976.573 1.521 0 .883-.785 1.14-1.766.576L264.79 75.606a3.537 3.537 0 0 1-1.766-2.624c0-.884.785-1.141 1.766-.577ZM264.79 80.426l51.937 29.974a3.529 3.529 0 0 1 1.766 2.612c0 .896-.785 1.153-1.766.589l-51.888-29.974a3.536 3.536 0 0 1-1.766-2.625c-.049-.883.736-1.14 1.717-.576ZM264.79 88.46l51.937 29.961c.478.27.887.648 1.193 1.104.307.455.503.976.573 1.521 0 .883-.785 1.14-1.766.576L264.839 91.66a3.536 3.536 0 0 1-1.766-2.624c-.049-.883.736-1.141 1.717-.577Z"/><path fill="#B9B9B9" d="m224.231 277.81-8.718-5.102a1.439 1.439 0 0 1-.71-2.201c.176-.244.425-.427.71-.522l34.061-19.623a5.17 5.17 0 0 1 4.721 0l8.717 5.102a1.432 1.432 0 0 1 .71 2.2 1.434 1.434 0 0 1-.71.523l-34.061 19.623a5.255 5.255 0 0 1-4.72 0Z"/><path fill="#fff" d="m218.91 270.046 6.633-3.826a3.475 3.475 0 0 1 3.114 0l6.633 3.826a.96.96 0 0 1 .461 1.453.953.953 0 0 1-.461.35l-6.633 3.839a3.477 3.477 0 0 1-3.114 0l-6.633-3.839a.955.955 0 0 1 0-1.803Z"/><path fill="#37474F" d="m223.851 270.819 3.604 2.085a.567.567 0 0 0 .761-.209l1.728-2.992c.148-.27 0-.442-.269-.381l-5.763 1.117c-.294.049-.368.233-.061.38Z"/><path fill="#fff" d="M234.297 264.38a2.719 2.719 0 0 0 2.452 0l16.295-9.407c.686-.405.723-1.03.073-1.41a2.693 2.693 0 0 0-2.452 0l-16.307 9.407c-.674.404-.711 1.03-.061 1.41ZM238.662 266.87a2.73 2.73 0 0 0 2.452 0l7.356-4.293c.687-.405.724-1.03.074-1.398a2.684 2.684 0 0 0-2.452 0l-7.357 4.292c-.687.405-.723 1.031-.073 1.399Z"/><path fill="#FF7800" d="m207.605 268.206-8.718-5.089a1.45 1.45 0 0 1-.705-2.207c.175-.245.421-.43.705-.528l34.061-19.623a5.245 5.245 0 0 1 4.721 0l8.717 5.102a1.443 1.443 0 0 1 .973 1.367 1.45 1.45 0 0 1-.973 1.368l-34.061 19.623a5.167 5.167 0 0 1-4.72-.013Z"/><path fill="#fff" d="m202.321 260.455 6.633-3.826a3.4 3.4 0 0 1 3.114 0l6.633 3.826a.957.957 0 0 1 0 1.803l-6.633 3.815a3.412 3.412 0 0 1-3.114 0l-6.633-3.827a.962.962 0 0 1-.62-.895.955.955 0 0 1 .62-.896Z"/><path fill="#37474F" d="m207.262 261.228 3.592 2.073a.57.57 0 0 0 .43.056.56.56 0 0 0 .342-.265l1.729-2.98c.147-.27 0-.442-.27-.38l-5.762 1.103c-.294.062-.331.233-.061.393Z"/><path fill="#fff" d="M217.708 254.777a2.719 2.719 0 0 0 2.452 0l16.295-9.419c.686-.393.723-1.03.073-1.398a2.679 2.679 0 0 0-2.452 0l-16.307 9.419c-.674.429-.711 1.03-.061 1.398ZM222.073 257.279a2.678 2.678 0 0 0 2.452 0l7.356-4.28c.687-.405.724-1.031.074-1.411a2.696 2.696 0 0 0-2.452 0l-7.357 4.293c-.686.38-.723 1.018-.073 1.398Z"/><path fill="#37474F" d="m458.28 268.942 10.875-6.353c1.631-.944 1.631-2.453 0-3.409l-42.496-24.529a6.475 6.475 0 0 0-5.885 0l-10.863 6.353c-1.631.944-1.631 2.453 0 3.409l42.484 24.529a6.484 6.484 0 0 0 5.885 0Z"/><path fill="#F03E3D" d="m434.825 242.034-8.276-4.783a4.267 4.267 0 0 0-3.887 0l-8.276 4.783a1.223 1.223 0 0 0-.732 1.122 1.225 1.225 0 0 0 .732 1.123l8.276 4.77a4.26 4.26 0 0 0 3.887 0l8.276-4.77a1.232 1.232 0 0 0 .731-1.123 1.224 1.224 0 0 0-.731-1.122Z"/><path fill="#fff" d="m424.182 240.955-3.335 1.925c-.662.381-.588.81.148.957l6.13 1.227c.748.147 1.018-.258.625-.896l-1.692-2.735a1.42 1.42 0 0 0-1.876-.478ZM462.35 261.804a3.4 3.4 0 0 1-3.041 0l-20.328-11.749c-.871-.49-.908-1.226-.098-1.741a3.372 3.372 0 0 1 3.028 0l20.341 11.749c.871.49.907 1.275.098 1.741ZM445.884 258.517a3.36 3.36 0 0 1-3.041 0l-9.195-5.359c-.859-.491-.895-1.227-.086-1.742a3.384 3.384 0 0 1 3.028 0l9.208 5.36c.895.491.895 1.275.086 1.741Z"/><path fill="#37474F" d="m429.528 285.291 10.875-6.365c1.631-.945 1.631-2.453 0-3.41l-42.496-24.529a6.477 6.477 0 0 0-5.886 0l-10.887 6.353c-1.619.945-1.619 2.453 0 3.41l42.496 24.528a6.563 6.563 0 0 0 5.898.013Z"/><path fill="#fff" d="M401.977 255.979a13.477 13.477 0 0 0-12.162 0c-3.36 1.938-3.36 5.09 0 7.027a13.478 13.478 0 0 0 12.162 0c3.36-1.937 3.36-5.089 0-7.027ZM433.635 278.141a3.295 3.295 0 0 1-3.028 0l-20.341-11.75c-.859-.49-.895-1.226-.086-1.741a3.372 3.372 0 0 1 3.028 0l20.341 11.749c.883.491.883 1.276.086 1.742ZM417.181 274.854a3.339 3.339 0 0 1-3.041 0l-9.196-5.36c-.858-.49-.907-1.226-.085-1.741a3.372 3.372 0 0 1 3.028 0l9.208 5.359c.858.503.895 1.276.086 1.742Z"/><path fill="#F03E3D" d="m392.267 261.24-.392-.821c-.515-1.08-.822-2.551.662-3.41a3.974 3.974 0 0 1 3.678 0c.785.454.956 1.116.515 1.668a4.086 4.086 0 0 1 2.894.294 1.121 1.121 0 0 1 .751 1.055 1.12 1.12 0 0 1-.751 1.055c-1.447.834-3.997.674-5.886.38l-1.471-.221Z"/></svg>